<svg id="Capa_1" data-name="Capa 1" xmlns="http://www.w3.org/2000/svg" xmlns:xlink="http://www.w3.org/1999/xlink" viewBox="0 0 1920 1080"><defs><style>.cls-1{fill:none;}.cls-2{clip-path:url(#clip-path);}.cls-3{fill:#fc0001;}.cls-4{fill:#fb6d01;}.cls-5{fill:#efa204;}.cls-6{fill:#fce8b3;}.cls-7{fill:#facf67;}.cls-8{fill:#fff;}.cls-9{clip-path:url(#clip-path-2);}.cls-10{fill:#0c0c0c;}.cls-11{fill:url(#Degradado_sin_nombre_12);}.cls-12{fill:url(#Degradado_sin_nombre_12-2);}.cls-13{fill:url(#Degradado_sin_nombre_12-3);}.cls-14{fill:url(#Degradado_sin_nombre_12-4);}.cls-15{fill:url(#Degradado_sin_nombre_12-5);}.cls-16{fill:url(#Degradado_sin_nombre_12-6);}.cls-17{fill:url(#Degradado_sin_nombre_12-7);}.cls-18{fill:url(#Degradado_sin_nombre_12-8);}.cls-19{fill:url(#Degradado_sin_nombre_12-9);}.cls-20{fill:url(#Degradado_sin_nombre_12-10);}.cls-21{fill:url(#Degradado_sin_nombre_12-11);}.cls-22{fill:url(#Degradado_sin_nombre_12-12);}.cls-23{fill:url(#Degradado_sin_nombre_12-13);}.cls-24{fill:url(#Degradado_sin_nombre_12-14);}.cls-25{fill:url(#Degradado_sin_nombre_12-15);}.cls-26{fill:url(#Degradado_sin_nombre_12-16);}.cls-27{fill:url(#Degradado_sin_nombre_12-17);}.cls-28{font-size:69.97px;font-family:SoundBubbleDEMO-Regular, Sound Bubble DEMO;}.cls-29{letter-spacing:-0.02em;}.cls-30{letter-spacing:0em;}.cls-31{letter-spacing:-0.02em;}.cls-32{letter-spacing:-0.03em;}.cls-33{letter-spacing:-0.02em;}.cls-34{letter-spacing:-0.02em;}.cls-35{letter-spacing:-0.02em;}.cls-36{letter-spacing:-0.04em;}.cls-37{letter-spacing:0em;}</style><clipPath id="clip-path"><rect class="cls-1" x="0.05" y="79.66" width="959.95" height="999.98"/></clipPath><clipPath id="clip-path-2"><rect class="cls-1" x="960.05" y="79.66" width="959.95" height="999.98"/></clipPath><linearGradient id="Degradado_sin_nombre_12" x1="374.61" y1="205.49" x2="374.61" y2="161.83" gradientUnits="userSpaceOnUse"><stop offset="0" stop-color="#ec1e79"/><stop offset="1" stop-color="#ff7bab"/></linearGradient><linearGradient id="Degradado_sin_nombre_12-2" x1="453.16" y1="205.49" x2="453.16" y2="161.83" xlink:href="#Degradado_sin_nombre_12"/><linearGradient id="Degradado_sin_nombre_12-3" x1="535.69" y1="205.49" x2="535.69" y2="161.83" xlink:href="#Degradado_sin_nombre_12"/><linearGradient id="Degradado_sin_nombre_12-4" x1="664.09" y1="205.49" x2="664.09" y2="161.83" xlink:href="#Degradado_sin_nombre_12"/><linearGradient id="Degradado_sin_nombre_12-5" x1="727.15" y1="205.49" x2="727.15" y2="161.83" xlink:href="#Degradado_sin_nombre_12"/><linearGradient id="Degradado_sin_nombre_12-6" x1="799.53" y1="205.49" x2="799.53" y2="161.83" xlink:href="#Degradado_sin_nombre_12"/><linearGradient id="Degradado_sin_nombre_12-7" x1="875.58" y1="205.49" x2="875.58" y2="161.83" xlink:href="#Degradado_sin_nombre_12"/><linearGradient id="Degradado_sin_nombre_12-8" x1="1003.67" y1="205.49" x2="1003.67" y2="161.83" xlink:href="#Degradado_sin_nombre_12"/><linearGradient id="Degradado_sin_nombre_12-9" x1="1085.82" y1="205.49" x2="1085.82" y2="161.83" xlink:href="#Degradado_sin_nombre_12"/><linearGradient id="Degradado_sin_nombre_12-10" x1="1161.3" y1="205.49" x2="1161.3" y2="161.83" xlink:href="#Degradado_sin_nombre_12"/><linearGradient id="Degradado_sin_nombre_12-11" x1="1231.83" y1="205.49" x2="1231.83" y2="161.83" xlink:href="#Degradado_sin_nombre_12"/><linearGradient id="Degradado_sin_nombre_12-12" x1="1294.58" y1="205.49" x2="1294.58" y2="161.83" xlink:href="#Degradado_sin_nombre_12"/><linearGradient id="Degradado_sin_nombre_12-13" x1="1298.55" y1="205.49" x2="1298.55" y2="161.83" xlink:href="#Degradado_sin_nombre_12"/><linearGradient id="Degradado_sin_nombre_12-14" x1="1352.23" y1="205.49" x2="1352.23" y2="161.83" xlink:href="#Degradado_sin_nombre_12"/><linearGradient id="Degradado_sin_nombre_12-15" x1="1430.89" y1="205.49" x2="1430.89" y2="161.83" xlink:href="#Degradado_sin_nombre_12"/><linearGradient id="Degradado_sin_nombre_12-16" x1="1513.41" y1="205.49" x2="1513.41" y2="161.83" xlink:href="#Degradado_sin_nombre_12"/><linearGradient id="Degradado_sin_nombre_12-17" x1="347.76" y1="262.87" x2="1566.24" y2="262.87" xlink:href="#Degradado_sin_nombre_12"/></defs><title>inicio juego</title><image width="6000" height="4000" transform="scale(0.32 0.27)" xlink:href="../../../../../../../../Downloads/empty-monochromatic-pink-texture.jpg"/><g class="cls-2"><path class="cls-3" d="M4.85,910c-13.44,11-30.08-9-39.68-17s-4.48,5.67-4.48,5.67l30.24,113.5s24.48,1,24.48-1S4.85,910,4.85,910Z"/><path class="cls-3" d="M28.37,1112.14c-134.39-10-95-155-42.24-188s41.28-76,41.28-76,40.32,32,24,69,1.92,102,36.48,75,14.4-39,8.64-70,20.16-51,20.16-51S98,919.33,131.16,917.92c35.27-1.5,29.68-31.78,10.49-61.78s-1-59-1-59,6.31,36,40.14,56.28c27.22,16.29,54,50.25,16.49,123.72-23.37,45.78,80.64,69,62.4,3s31.68-103,31.68-103-24,87,46.08,121,65.27,103,65.27,103Z"/><path class="cls-3" d="M403.71,1120.14c-1.7-.86-43.26-16.19-44.33-17.73-77-111-19.79-92.67,8.63-125.25,28.8-33-7.5-38-22.86-80s15.36-69,15.36-69-8.64,46,21.12,53,134.4,51,94.08,116,83.51-34,40.32-95c-42.12-59.47-32.64-101-22.08-116-2.88,76,85.43,2,133.43,145,28.48,84.86,98.88,128,117.11,99s-85.43-89-45.11-139,64.31-46,46.07-87,6.72-60,6.72-60-19.2,34,11.52,48,93.12,34,55.68,100,99.84,79,73.92,20,10.56-81,10.56-81-25.92,21,20.16,61,49,201,49,201Z"/><path class="cls-3" d="M689.1,1087.41c-193.91-53-142.36-153.27-104.92-176.27s46.08-81,26.88-102,49,3,33.6,69,26.88,60,44.16,109S689.1,1087.41,689.1,1087.41Z"/><path class="cls-4" d="M645.76,942c19.44,28.5-14.4,95.24-14.4,95.24l-24.47,60s181.06-16.44,146.82-82.1c10.57,7.07-22.72,50.66-51.2,14-13-16.68-7.68-20.09-22.08-52.33S645.76,942,645.76,942Z"/><path class="cls-4" d="M-67.62,855.48c-10.24,24.33,8.16,61.33,10.56,76.66s-13.28,33.33-40.48,32.67-42.08-13.17-42.08-13.17l49.12,31.83,56.15,22.34,45.44-10.17-.8-81.33s-4.51,5.48-23,2.66c-23-3.5-45.88-34.26-50.07-44.16A63,63,0,0,1-67.62,855.48Z"/><path class="cls-4" d="M52.69,1087.41c-123.83-26.25-96.55-145.27-58.4-163.27s41.76-51.5,41.28-62.5c34.56,37-8.08,75,5.6,113.27s66.23,28.5,85.67,69S52.69,1087.41,52.69,1087.41Z"/><path class="cls-4" d="M105.65,931.64c13.92,37,4.8,54-6.72,63s-24.48,11-33.12,7l-8.64-4s1.44,26.5,4.32,26.5,81.12-38.5,81.12-38.5l-29.28-51.5Z"/><path class="cls-4" d="M177.65,858.59c58.51,26.12,27.56,111-3,127.43-57.92,31.12-75.2-79.38-75.2-79.38s27.33,34.5,58.49,23.19c10.14-3.69,25.82-26.69,1.5-55.19-27.88-32.67-17.46-57.21-17.46-57.21S151.89,847.08,177.65,858.59Z"/><path class="cls-4" d="M321.94,1121.9c66.23-81.74,17.2-111-20-144.76-33.6-30.5-25-79.5-25-79.5s-42.72,45.5,7.5,138.77Z"/><path class="cls-4" d="M430.59,903.64c73.48,48.48,43.68,102,17.76,136.5S304.5,1023.5,363.7,993.66c89.27-45-34.86-58.52-17.11-134.52C373,894.64,409,889.39,430.59,903.64Z"/><path class="cls-4" d="M491.55,824.64c96,7.5,157.24,112.77,157.24,184.77,0,103.49-100.75,129.54-138.23,75-52.55-76.5,58.92-116,15.55-175.77C494.91,865.64,491.55,824.64,491.55,824.64Z"/><path class="cls-5" d="M627.91,841.42c20.88,27.75-15.84,77.25-13.68,115.5s5,39.74,5,39.74-21.6-24-21.6-61.49,17.28-43.5,24.48-62.25S627.91,841.42,627.91,841.42Z"/><path class="cls-5" d="M22,938c-19.2,20-29.08,3-31.36-3-3-8,3.2-17.16,3.2-17.16s-12.48-1.67-18.88,8.5,1.6,23.33,4.48,29.16S1.65,995.31,1.65,995.31Z"/><path class="cls-5" d="M84.36,1098.66c-154.78-58.5-90.71-135.74-74.15-150s18.72-18.75,18.72-18.75-19.76,67.22,14.8,80.22c27.8,10.46,47.11-26.23,105.43,1.52s77.87,67.95,115.91,30.75c34-33.27-1.51-81.27-1.51-81.27s77.28,30,81.42,85c2.48,33-36,54-36,54Z"/><path class="cls-5" d="M407.61,1095.66c-51.11-6.75-118.07-69.75-66.23-84.75s86.81-35.8,83-69.27c-3.42-29.78-30.72-45.25-29.28-46s107,12.5,65.82,137.77C428,1133.45,407.61,1095.66,407.61,1095.66Z"/><path class="cls-5" d="M533.6,919.42c24.48,53.24,0,97.49-32.4,103.49s-57.59-3.75-70.55,36.75,194.38,27,194.38,27,10.08-46.5-25.92-96.75-7.2-60-19.44-99.74-54.71-34.5-74.15-55.49-17.28-24-17.28-24-10.69,49.79,28.8,65.24c34.15,13.37,47.6,25.77,43.2,42C554.74,938.14,533.6,919.42,533.6,919.42Z"/><path class="cls-5" d="M622.15,1121.15c-25.92-86.24,29.52-99.74,36.72-132,3-13.46,0-31.49,2.16-30s36,66,26.63,102S622.15,1121.15,622.15,1121.15Z"/><path class="cls-6" d="M508.35,902.64c-1.44,33,53.75,55.5,15.68,101.17,5-8.67,13.11-31.17-9.44-55.17C495.39,928.22,508.35,902.64,508.35,902.64Z"/><path class="cls-3" d="M333.64,909.47c4.48,7,15,20.34,5.12,37S342,982.81,342,982.81s-10.55-3.34-16.31-18C318.08,945.57,340.36,928.14,333.64,909.47Z"/><path class="cls-6" d="M380.67,859.14c-18.56,33.33,5.76,63.67,18.56,68.67C376.51,898.81,380.67,859.14,380.67,859.14Z"/><path class="cls-5" d="M177.64,867.64c64.32,50-12.48,120.5-1.44,147s38.88,36,38.88,36L79,1006.39s27.17-7.86,45.36-20.25c24.95-17-10.56-53-10.56-53s42.71,9,43.67,34.5-.48,36.5-.48,36.5-10.86-41.43,10.08-56.5C213.64,914.14,177.64,867.64,177.64,867.64Z"/><path class="cls-7" d="M26.77,1097.16c-68.39-34.5-15.84-113.25-15.84-113.25s-4.32,21.75,12.24,35.25,68.39,69.75,67,76.5S26.77,1097.16,26.77,1097.16Z"/><path class="cls-7" d="M86.52,1084.41c-28.79-55.5,15.84-82.5,57.6-93,22.24-5.59,29.51-31.49,29.51-31.49s7.2,40.49-22.31,63.74,47.51,35.25,76.31,51,24.48,21.75,24.48,21.75l-15.84-.08-151.19-.67Z"/><path class="cls-7" d="M226.91,1108.4c-5.76-62.24,66.23-57.74,82.79-69.74s6.48-26.25,6.48-26.25,24.48,4.5,40.32,41.25,14.39,52.5,12.23,52.5S226.91,1108.4,226.91,1108.4Z"/><path class="cls-7" d="M422.73,920.92c41,29.25,36.72,81.74,23.76,108.74s-25.92,57-29.52,57-39.6,4.5-41,2.25-38.87-45,4.32-70.5,58.32-34.5,56.16-58.49S422.73,920.92,422.73,920.92Z"/><path class="cls-7" d="M509.84,811.43c-3.6,46.49,12.24,57,43.92,69.74C573,888.91,571,911.92,571,911.92s11.52-27.75-25.91-51C519.29,844.89,509.84,811.43,509.84,811.43Z"/><path class="cls-7" d="M549.44,939.67c66.23,59.24,71.27,138.74,67.67,149.24s-174.22,5.25-174.22,5.25,5.76-35.25,66.23-51S549.44,939.67,549.44,939.67Z"/><path class="cls-3" d="M66.37,1046.91c-49.68-45.75-10.8-92.24-5-106.49s5.76-17.25,5.76-17.25,15.11,33-2.16,65.24C53.78,1009.22,66.37,1046.91,66.37,1046.91Z"/><path class="cls-7" d="M60.61,948.67c-9.36,24-28.08,41.24-5.76,81,12.1,21.55,13,21,13,21s-25.63-36.64-9.36-63C71.4,966.67,60.61,948.67,60.61,948.67Z"/><path class="cls-7" d="M224.75,1061.91c-57.6-30-14.4-69,.72-80.25S232,946.42,232,946.42s22.32,24.74,18,48-36.72,29.25-32.4,48S224.75,1061.91,224.75,1061.91Z"/><path class="cls-6" d="M-39.75,966.67c30,30.8,32.44,68.8,39.8,86.3s20.64,20.5,20.64,20.5,4.64,9.67,4.16,9.67l-44.8.5s6.08-29.17,2.24-46.84S-39.75,966.67-39.75,966.67Z"/><path class="cls-6" d="M35.41,1105.41c-37.44-39.75-23.76-72.75-23.76-72.75s-2.16,27.75,25.2,39,50.39,33,50.39,33Z"/><path class="cls-6" d="M141.24,1105.41c-64.8-15.75-61.92-69.75-40.32-81.75s31-14.25,31-14.25-32.4,46.5-2.16,60.75,23.76-13.5,23.76-13.5,62.63,15,71.27,32.25l8.64,17.25s12.24-33,38.87-44.25,26.64-37.5,26.64-37.5,23,20.25,1.44,42.75-10.8,26.25-10.8,26.25Z"/><path class="cls-6" d="M332,1094.91c-13.68-52.5,9.27-82,35.27-82.5,37.44-.75,54.72-30,54.72-30s-4.32,38.25-38.88,51.75,11.95,48.07,28.8,21.75c13-20.25,14.4-48.75,14.4-48.75s13.68,20.25,13,51,5,31.5,5,31.5-7.2-9,19.43-33,47.52-26.25,47.52-26.25-27.36,35.25,5,33.75,46.51-26.08,40.32-44.25c-7.92-23.25,10.07-51,10.07-51s-.72,41.24,11.52,51,20.88,41.46,7.2,59.73S332,1094.91,332,1094.91Z"/><path class="cls-6" d="M691.26,1095.66c13.68-45.75,49-40.5,54.72-63s-33.12-39-33.12-39,29.52-6.75,46.07,17.25,23.76,46,15.12,68.73S691.26,1095.66,691.26,1095.66Z"/><path class="cls-8" d="M36.85,1118.9c-13-10.5-28.8-50.24,2.88-43.49s29.51-13.5,29.51-13.5,31,21.75,32.4,27.75-5.76-8.25-5-24.75,7.92-21,7.92-21,7.92,35.25,23.76,37.5,36-.75,35.28-6.75l-.72-6s28.07,1.5,38.15,14.25,18-2.25,25.92-15,33.84-12.75,33.84-12.75-9.36,19.5,3.6,20.25,21.59-9.75,21.59-9.75-5.76,21,6.48,22.5,12.24-17.25,27.36-21,36,17.25,36,17.25-25.6-20-16.56-36c7.2-12.75,18-12,18-12s-15.12,21.75,10.07,27c25,5.21,27.36,15.75,45.36,13.5s15.84-26.25,15.84-26.25l6.48,33Z"/><path class="cls-8" d="M-16.11,1028.8c12.8,24.34,6.72,31.67,22.72,42.67S29,1083.8,29,1083.8s-52.16,0-50.24-1.33S-16.11,1028.8-16.11,1028.8Z"/><path class="cls-8" d="M447.21,1098.66c8.64-44.25,9.36-60.75,4.32-66s18,14.25,20.15,27.75,13-8.25,13-8.25-5,24.75,25.2,24.75,49.68-1.5,52.55-15.75,2.16-18.75,2.16-18.75,19.44,9.75,18,30.75l-1.44,21Z"/><path class="cls-8" d="M631.51,1106.16s10.8-37.5,22.32-43.5l11.51-6,5,19.5s2.88-13.5,28.8-17.25,27.36,18,45.36,10.5,16.55-24,16.55-24,12.24,5.25,13,23.25-3.6,18.75-3.6,18.75Z"/><path class="cls-4" d="M654.26,935.64c-17.28-38-2.4-51.5,9.6-61,7.58-6,24.48-8.5,24.48-8.5s-45.6,20.5-24,51.5c15.14,21.74,8.16,38.5,8.16,38.5Z"/><path class="cls-7" d="M155.08,834.64c-16.31,38,7.2,42,13.44,63,5,16.75.48,28.5.48,28.5s18.24-32.5,1.44-50.5S155.08,834.64,155.08,834.64Z"/><path class="cls-7" d="M16.37,877.14c19.68,28,.48,44-3.36,51.5a26.86,26.86,0,0,0-2.88,14.5s-7.67-18,1.44-29C24.05,899.14,16.37,877.14,16.37,877.14Z"/><path class="cls-7" d="M273.64,950.14c-17.8-26,19.2-40.5,22.08-43s-17.28,17.49-17.28,29c0,17,9.12,30.5,9.12,30.5S278.44,957.14,273.64,950.14Z"/><path class="cls-3" d="M965.38,909.28c-13.44,11-33.38-10.47-43-18.47s-1.19,7.13-1.19,7.13l30.24,113.5s24.48,1,24.48-1S965.38,909.28,965.38,909.28Z"/><path class="cls-3" d="M726.19,1038.78c-33-10.34-30.08-37.67-36.8-52.34s-10.88-15.66-10.88-15.66,13.44,51.66,15,61.33,27.84,11,27.84,11Z"/><path class="cls-4" d="M892.9,854.78c-10.24,24.33,8.16,61.33,10.56,76.66S890.18,964.78,863,964.11s-42.07-13.17-42.07-13.17L870,982.78l56.16,22.33,45.44-10.17-.8-81.33s-4.52,5.48-23,2.67c-23-3.5-45.89-34.26-50.08-44.17A63,63,0,0,1,892.9,854.78Z"/><path class="cls-4" d="M761.39,794c104.63,40,25,93,42.24,133.49S863.9,966,919.33,984.72s56.88,114.74,56.88,114.74L694.72,1104s85.15-59.52,51.31-100-62.39-84.5-13.44-122C794.09,834.84,761.39,794,761.39,794Z"/><path class="cls-5" d="M646.48,1092.71c-4.32-57,57.6-54.75,108-35.25s74.87-61.49,135.35-51.74S964.69,1074,964.69,1074l-.72,12.75Z"/><path class="cls-7" d="M627.91,1120.4c-13.68-69,13-72.74,29.52-90.74s14.39-27,14.39-27,20.88,45,15.12,72.75S627.91,1120.4,627.91,1120.4Z"/><path class="cls-5" d="M910,881.23c2.88,54,43.91,55.49,57.59,135s-11.52,82.49-11.52,82.49l-241.17-43.5-3.6-9s54,21,50.39-18-27.36-36-42.47-80.24,21.79-65,41.23-69.52c38.88-9,34.08-49,34.08-49s29.76,27.5-19.88,84c-22.72,25.88,31.78,79.14,73.43,78,54.72-1.5,69-15.13,61.92-42C898.46,906,910,881.23,910,881.23Z"/><path class="cls-5" d="M982.5,937.28c-19.2,20-29.09,3-31.36-3-3-8,1.66-26.81,1.66-26.81s-10.94,8-17.34,18.14,1.6,23.33,4.48,29.17,22.24,39.83,22.24,39.83Z"/><path class="cls-3" d="M872.37,935.81c-16,26.77-68.74-6.37-36.42-23C860,900.4,860.42,874.61,854,862,886.66,887,884.26,915.94,872.37,935.81Z"/><path class="cls-4" d="M868.1,881.11c20,37.89-1.05,59.31-17.39,60.95s-34.56-20.52-6.76-28.12C873.22,905.94,868.1,881.11,868.1,881.11Z"/><path class="cls-7" d="M859.78,874c12.16,24,14,47.74,3.84,57.49-18.23,17.5-28.2-.52-22.55-5.5s16.1-6.82,22.07-18C867.9,899.06,859.78,874,859.78,874Z"/><path class="cls-6" d="M730.35,823.11C699,868.78,715,897.78,715,897.78a93.51,93.51,0,0,1,5.44-42C728.75,833.78,730.35,823.11,730.35,823.11Z"/><path class="cls-7" d="M731.43,911.22c-12.23,59.25,56.16,85.5,62.64,138s-6.48,58.5-6.48,58.5L920.05,1110s7.2-84-51.11-108.74-90-17.25-113-45.75S731.43,911.22,731.43,911.22Z"/><path class="cls-7" d="M918.5,929.61c62.72,53,45.47,157.1,45.47,157.1L890.54,1095s7.92-52.5,30.23-73.49S918.5,929.61,918.5,929.61Z"/><path class="cls-6" d="M691.84,1095c13.68-45.75,48.95-40.5,54.71-63s-33.11-39-33.11-39,38.35-5.19,57.23,19.81c17.54,23.22,23.36,44.89,14.72,67.66S691.84,1095,691.84,1095Z"/><path class="cls-6" d="M604.87,1079.64c-10.8-48.48,25.92-65.73,28.08-89.73s-1.44-31.49-1.44-31.49,25.2,54.74,5.76,74.24-35.28,42-20.88,52.5l14.4,10.5s-4.32-33.75,16.56-43.5l20.87-9.75s15.84,24.75,7.2,39.75S656,1099.41,656,1099.41s-63.36-9-61.2-10.5S604.87,1079.64,604.87,1079.64Z"/><path class="cls-6" d="M815.67,1098.71c-10.08-72.75-30.24-100.49-28.08-101.24s60.47,1.5,77.75,37.49-.72-11.25,24.48-29.24S920.77,966,920.77,966s30.24,40.5,28.8,84l-1.44,43.5Z"/><path class="cls-6" d="M920.77,966c30.05,30.81,32.45,68.81,39.81,86.3s20.64,20.5,20.64,20.5,4.64,9.67,4.16,9.67l-44.8.5s6.08-29.17,2.24-46.83S920.77,966,920.77,966Z"/><path class="cls-6" d="M825.74,973.47c-43.91-27-45.35-50.25-30.23-68.25s14.4-21.74,14.4-21.74-11.52,30.74-8.64,51S825.74,973.47,825.74,973.47Z"/><path class="cls-8" d="M632.08,1105.46s10.8-37.5,22.32-43.5l11.52-6,5,19.5s2.88-13.5,28.8-17.25,27.35,18,45.35,10.5,16.56-24,16.56-24,12.24,5.25,13,23.25-3.6,18.75-3.6,18.75Z"/><path class="cls-8" d="M772.47,1107.71c1.44-44.25,38.16-44.25,49.67-57.75s-5.75-29.24-5.75-29.24,35.27,11.24,34.55,28.49l-.72,17.25s.51-12.76,33.84-10.5c41.48,2.81,40.84-54.52,40.84-54.52s23.68,15,31.36,69c3.54,24.88-32.61,19.27-32.61,19.27Z"/><path class="cls-8" d="M944.42,1028.11c12.8,24.33,6.72,31.66,22.72,42.66s22.4,12.34,22.4,12.34-52.16,0-50.24-1.34S944.42,1028.11,944.42,1028.11Z"/><path class="cls-6" d="M948.42,978.44c-23-35-3.36-53.66-3.36-53.66s-6.4,16.5,1.6,30.16C954.15,967.74,948.42,978.44,948.42,978.44Z"/><path class="cls-7" d="M924.36,1052c-13.48-15.76,9.21-29.27,9.21-43.61s-5.71-18.74-5.71-18.74,15.49,14.46,10.72,29.68-7.24,32.46,1.88,39.24S933.22,1062.4,924.36,1052Z"/><path class="cls-7" d="M893.22,1012.11c-17.28,22-12.48,39.33-2.24,52l10.24,12.66s8.32-13-4.16-26.66S893.22,1012.11,893.22,1012.11Z"/><path class="cls-4" d="M799.15,1019.78c11.91,23.86,12.8,23.66-1,33.33s1.6,25,1.6,25-12.48-11,2.56-18.67,24-19,10.24-32S802,1005.11,802,1005.11,795,1011.44,799.15,1019.78Z"/><path class="cls-6" d="M658.35,921.78c-13.16-14.34-6.07-31-6.07-31s-4.16,13.33,10.55,30.33a17,17,0,0,1,2.88,18.33S665.39,929.44,658.35,921.78Z"/></g><g class="cls-9"><path class="cls-3" d="M964.85,910c-13.44,11-30.08-9-39.68-17s-4.48,5.67-4.48,5.67l30.24,113.5s24.48,1,24.48-1S964.85,910,964.85,910Z"/><path class="cls-3" d="M988.37,1112.14c-134.4-10-95-155-42.24-188s41.28-76,41.28-76,40.32,32,24,69,1.92,102,36.47,75,14.4-39,8.64-70,20.16-51,20.16-51-18.65,48.19,14.48,46.78c35.27-1.5,29.68-31.78,10.48-61.78s-1-59-1-59,6.31,36,40.15,56.28c27.22,16.29,54,50.25,16.49,123.72-23.37,45.78,80.64,69,62.4,3s31.67-103,31.67-103-24,87,46.08,121,65.28,103,65.28,103Z"/><path class="cls-3" d="M1363.71,1120.14c-1.71-.86-43.27-16.19-44.34-17.73-77-111-19.78-92.67,8.64-125.25,28.8-33-7.5-38-22.86-80s15.36-69,15.36-69-8.64,46,21.12,53,134.39,51,94.07,116,83.52-34,40.32-95c-42.12-59.47-32.64-101-22.08-116-2.88,76,85.44,2,133.44,145,28.48,84.86,98.87,128,117.11,99s-85.43-89-45.12-139,64.32-46,46.08-87,6.72-60,6.72-60-19.2,34,11.52,48,93.12,34,55.68,100,99.83,79,73.91,20,10.56-81,10.56-81-25.92,21,20.16,61,49,201,49,201Z"/><path class="cls-3" d="M1649.1,1087.41c-193.91-53-142.36-153.27-104.92-176.27s46.08-81,26.88-102,49,3,33.6,69,26.87,60,44.15,109S1649.1,1087.41,1649.1,1087.41Z"/><path class="cls-4" d="M1605.76,942c19.44,28.5-14.4,95.24-14.4,95.24l-24.48,60s181.06-16.44,146.83-82.1c10.57,7.07-22.72,50.66-51.2,14-13-16.68-7.68-20.09-22.08-52.33S1605.76,942,1605.76,942Z"/><path class="cls-4" d="M892.37,855.48c-10.24,24.33,8.16,61.33,10.56,76.66s-13.28,33.33-40.48,32.67-42.07-13.17-42.07-13.17l49.11,31.83,56.16,22.34,45.44-10.17-.8-81.33s-4.52,5.48-23,2.66c-23-3.5-45.89-34.26-50.08-44.16A63,63,0,0,1,892.37,855.48Z"/><path class="cls-4" d="M1012.68,1087.41c-123.82-26.25-96.55-145.27-58.39-163.27s41.76-51.5,41.28-62.5c34.56,37-8.08,75,5.59,113.27s66.24,28.5,85.68,69S1012.68,1087.41,1012.68,1087.41Z"/><path class="cls-4" d="M1065.64,931.64c13.92,37,4.8,54-6.72,63s-24.47,11-33.11,7l-8.64-4s1.44,26.5,4.32,26.5,81.11-38.5,81.11-38.5l-29.28-51.5Z"/><path class="cls-4" d="M1137.65,858.59c58.51,26.12,27.56,111-3,127.43-57.93,31.12-75.21-79.38-75.21-79.38s27.34,34.5,58.49,23.19c10.15-3.69,25.83-26.69,1.51-55.19-27.88-32.67-17.46-57.21-17.46-57.21S1111.88,847.08,1137.65,858.59Z"/><path class="cls-4" d="M1281.94,1121.9c66.23-81.74,17.2-111-20-144.76-33.59-30.5-25-79.5-25-79.5s-42.72,45.5,7.5,138.77Z"/><path class="cls-4" d="M1390.59,903.64c73.48,48.48,43.67,102,17.76,136.5s-143.86-16.64-84.66-46.48c89.27-45-34.86-58.52-17.1-134.52C1333,894.64,1369,889.39,1390.59,903.64Z"/><path class="cls-4" d="M1451.54,824.64c96,7.5,157.24,112.77,157.24,184.77,0,103.49-100.75,129.54-138.22,75-52.56-76.5,58.92-116,15.54-175.77C1454.9,865.64,1451.54,824.64,1451.54,824.64Z"/><path class="cls-5" d="M1587.9,841.42c20.88,27.75-15.83,77.25-13.67,115.5s5,39.74,5,39.74-21.6-24-21.6-61.49,17.28-43.5,24.48-62.25S1587.9,841.42,1587.9,841.42Z"/><path class="cls-5" d="M982,938c-19.2,20-29.09,3-31.36-3-3-8,3.2-17.16,3.2-17.16s-12.48-1.67-18.88,8.5,1.6,23.33,4.48,29.16,22.24,39.84,22.24,39.84Z"/><path class="cls-5" d="M1044.36,1098.66c-154.78-58.5-90.71-135.74-74.15-150s18.72-18.75,18.72-18.75-19.76,67.22,14.8,80.22c27.8,10.46,47.11-26.23,105.42,1.52s77.88,67.95,115.91,30.75c34-33.27-1.5-81.27-1.5-81.27s77.27,30,81.41,85c2.49,33-36,54-36,54Z"/><path class="cls-5" d="M1367.61,1095.66c-51.12-6.75-118.07-69.75-66.24-84.75s86.82-35.8,83-69.27c-3.42-29.78-30.72-45.25-29.28-46s107,12.5,65.81,137.77C1388,1133.45,1367.61,1095.66,1367.61,1095.66Z"/><path class="cls-5" d="M1493.59,919.42c24.48,53.24,0,97.49-32.39,103.49s-57.6-3.75-70.55,36.75,194.38,27,194.38,27,10.07-46.5-25.92-96.75-7.2-60-19.44-99.74-54.71-34.5-74.15-55.49-17.28-24-17.28-24-10.69,49.79,28.8,65.24c34.14,13.37,47.6,25.77,43.19,42C1514.74,938.14,1493.59,919.42,1493.59,919.42Z"/><path class="cls-5" d="M1582.15,1121.15c-25.92-86.24,29.51-99.74,36.71-132,3-13.46,0-31.49,2.16-30s36,66,26.64,102S1582.15,1121.15,1582.15,1121.15Z"/><path class="cls-6" d="M1468.34,902.64c-1.44,33,53.76,55.5,15.68,101.17,5-8.67,13.12-31.17-9.44-55.17C1455.38,928.22,1468.34,902.64,1468.34,902.64Z"/><path class="cls-3" d="M1293.63,909.47c4.48,7,15,20.34,5.12,37s3.2,36.34,3.2,36.34-10.56-3.34-16.32-18C1278.08,945.57,1300.35,928.14,1293.63,909.47Z"/><path class="cls-6" d="M1340.67,859.14c-18.56,33.33,5.76,63.67,18.56,68.67C1336.51,898.81,1340.67,859.14,1340.67,859.14Z"/><path class="cls-5" d="M1137.64,867.64c64.32,50-12.48,120.5-1.44,147s38.88,36,38.88,36L1039,1006.39s27.16-7.86,45.35-20.25c25-17-10.56-53-10.56-53s42.72,9,43.68,34.5-.48,36.5-.48,36.5-10.87-41.43,10.08-56.5C1173.64,914.14,1137.64,867.64,1137.64,867.64Z"/><path class="cls-7" d="M986.77,1097.16c-68.4-34.5-15.84-113.25-15.84-113.25s-4.32,21.75,12.24,35.25,68.39,69.75,66.95,76.5S986.77,1097.16,986.77,1097.16Z"/><path class="cls-7" d="M1046.52,1084.41c-28.8-55.5,15.84-82.5,57.59-93,22.24-5.59,29.52-31.49,29.52-31.49s7.2,40.49-22.32,63.74,47.52,35.25,76.32,51,24.47,21.75,24.47,21.75l-15.83-.08-151.19-.67Z"/><path class="cls-7" d="M1186.91,1108.4c-5.76-62.24,66.23-57.74,82.79-69.74s6.48-26.25,6.48-26.25,24.47,4.5,40.31,41.25,14.4,52.5,12.24,52.5S1186.91,1108.4,1186.91,1108.4Z"/><path class="cls-7" d="M1382.73,920.92c41,29.25,36.71,81.74,23.75,108.74s-25.91,57-29.51,57-39.6,4.5-41,2.25-38.88-45,4.32-70.5,58.31-34.5,56.15-58.49S1382.73,920.92,1382.73,920.92Z"/><path class="cls-7" d="M1469.84,811.43c-3.6,46.49,12.24,57,43.91,69.74,19.23,7.74,17.28,30.75,17.28,30.75s11.52-27.75-25.92-51C1479.29,844.89,1469.84,811.43,1469.84,811.43Z"/><path class="cls-7" d="M1509.43,939.67c66.24,59.24,71.28,138.74,67.68,149.24s-174.23,5.25-174.23,5.25,5.76-35.25,66.24-51S1509.43,939.67,1509.43,939.67Z"/><path class="cls-3" d="M1026.36,1046.91c-49.67-45.75-10.8-92.24-5-106.49s5.76-17.25,5.76-17.25,15.12,33-2.16,65.24C1013.78,1009.22,1026.36,1046.91,1026.36,1046.91Z"/><path class="cls-7" d="M1020.6,948.67c-9.36,24-28.07,41.24-5.76,81,12.1,21.55,13,21,13,21s-25.62-36.64-9.36-63C1031.4,966.67,1020.6,948.67,1020.6,948.67Z"/><path class="cls-7" d="M1184.75,1061.91c-57.6-30-14.4-69,.72-80.25s6.48-35.24,6.48-35.24,22.31,24.74,18,48-36.71,29.25-32.39,48S1184.75,1061.91,1184.75,1061.91Z"/><path class="cls-6" d="M920.24,966.67c30,30.8,32.45,68.8,39.81,86.3s20.64,20.5,20.64,20.5,4.64,9.67,4.16,9.67l-44.8.5s6.08-29.17,2.24-46.84S920.24,966.67,920.24,966.67Z"/><path class="cls-6" d="M995.41,1105.41c-37.44-39.75-23.76-72.75-23.76-72.75s-2.16,27.75,25.19,39,50.4,33,50.4,33Z"/><path class="cls-6" d="M1101.23,1105.41c-64.79-15.75-61.91-69.75-40.31-81.75s31-14.25,31-14.25-32.4,46.5-2.16,60.75,23.75-13.5,23.75-13.5,62.64,15,71.28,32.25l8.64,17.25s12.23-33,38.87-44.25,26.64-37.5,26.64-37.5,23,20.25,1.44,42.75-10.8,26.25-10.8,26.25Z"/><path class="cls-6" d="M1292,1094.91c-13.68-52.5,9.27-82,35.27-82.5,37.44-.75,54.72-30,54.72-30s-4.32,38.25-38.88,51.75,11.95,48.07,28.8,21.75c13-20.25,14.4-48.75,14.4-48.75s13.67,20.25,13,51,5,31.5,5,31.5-7.2-9,19.44-33,47.52-26.25,47.52-26.25-27.36,35.25,5,33.75,46.5-26.08,40.31-44.25c-7.92-23.25,10.08-51,10.08-51s-.72,41.24,11.52,51,20.88,41.46,7.2,59.73S1292,1094.91,1292,1094.91Z"/><path class="cls-6" d="M1651.26,1095.66c13.68-45.75,49-40.5,54.71-63s-33.11-39-33.11-39,29.51-6.75,46.07,17.25,23.76,46,15.12,68.73S1651.26,1095.66,1651.26,1095.66Z"/><path class="cls-8" d="M996.84,1118.9c-13-10.5-28.79-50.24,2.88-43.49s29.52-13.5,29.52-13.5,31,21.75,32.4,27.75-5.76-8.25-5-24.75,7.92-21,7.92-21,7.92,35.25,23.76,37.5,36-.75,35.27-6.75l-.72-6s28.08,1.5,38.16,14.25,18-2.25,25.92-15,33.83-12.75,33.83-12.75-9.36,19.5,3.6,20.25,21.6-9.75,21.6-9.75-5.76,21,6.48,22.5,12.24-17.25,27.36-21,36,17.25,36,17.25-25.59-20-16.56-36c7.2-12.75,18-12,18-12s-15.12,21.75,10.08,27c25,5.21,27.36,15.75,45.36,13.5s15.84-26.25,15.84-26.25l6.47,33Z"/><path class="cls-8" d="M943.89,1028.8c12.8,24.34,6.72,31.67,22.72,42.67S989,1083.8,989,1083.8s-52.16,0-50.24-1.33S943.89,1028.8,943.89,1028.8Z"/><path class="cls-8" d="M1407.2,1098.66c8.64-44.25,9.36-60.75,4.32-66s18,14.25,20.16,27.75,13-8.25,13-8.25-5,24.75,25.2,24.75,49.67-1.5,52.55-15.75,2.16-18.75,2.16-18.75,19.44,9.75,18,30.75l-1.44,21Z"/><path class="cls-8" d="M1591.5,1106.16s10.8-37.5,22.32-43.5l11.52-6,5,19.5s2.88-13.5,28.8-17.25,27.36,18,45.35,10.5,16.56-24,16.56-24,12.24,5.25,13,23.25-3.6,18.75-3.6,18.75Z"/><path class="cls-4" d="M1614.26,935.64c-17.28-38-2.4-51.5,9.6-61,7.58-6,24.47-8.5,24.47-8.5s-45.59,20.5-24,51.5c15.14,21.74,8.15,38.5,8.15,38.5Z"/><path class="cls-7" d="M1115.08,834.64c-16.32,38,7.2,42,13.44,63,5,16.75.48,28.5.48,28.5s18.24-32.5,1.44-50.5S1115.08,834.64,1115.08,834.64Z"/><path class="cls-7" d="M976.37,877.14c19.68,28,.48,44-3.36,51.5a26.86,26.86,0,0,0-2.88,14.5s-7.68-18,1.44-29C984.05,899.14,976.37,877.14,976.37,877.14Z"/><path class="cls-7" d="M1233.64,950.14c-17.81-26,19.19-40.5,22.07-43s-17.27,17.49-17.27,29c0,17,9.11,30.5,9.11,30.5S1238.44,957.14,1233.64,950.14Z"/><path class="cls-3" d="M1925.38,909.28c-13.44,11-33.38-10.47-43-18.47s-1.18,7.13-1.18,7.13l30.24,113.5s24.48,1,24.48-1S1925.38,909.28,1925.38,909.28Z"/><path class="cls-3" d="M1686.19,1038.78c-33-10.34-30.08-37.67-36.8-52.34s-10.88-15.66-10.88-15.66,13.44,51.66,15,61.33,27.84,11,27.84,11Z"/><path class="cls-4" d="M1852.9,854.78c-10.24,24.33,8.16,61.33,10.56,76.66s-13.28,33.34-40.48,32.67-42.08-13.17-42.08-13.17L1830,982.78l56.16,22.33,45.44-10.17-.8-81.33s-4.52,5.48-23,2.67c-23-3.5-45.89-34.26-50.08-44.17A63,63,0,0,1,1852.9,854.78Z"/><path class="cls-4" d="M1721.39,794c104.63,40,25,93,42.23,133.49s60.28,38.53,115.71,57.28,56.88,114.74,56.88,114.74l-281.5,4.5s85.15-59.52,51.32-100-62.4-84.5-13.44-122C1754.08,834.84,1721.39,794,1721.39,794Z"/><path class="cls-5" d="M1606.48,1092.71c-4.32-57,57.59-54.75,108-35.25s74.87-61.49,135.34-51.74,74.88,68.24,74.88,68.24l-.72,12.75Z"/><path class="cls-7" d="M1587.9,1120.4c-13.67-69,13-72.74,29.52-90.74s14.4-27,14.4-27,20.88,45,15.12,72.75S1587.9,1120.4,1587.9,1120.4Z"/><path class="cls-5" d="M1870,881.23c2.88,54,43.92,55.49,57.6,135s-11.52,82.49-11.52,82.49l-241.18-43.5-3.6-9s54,21,50.4-18-27.36-36-42.48-80.24,21.8-65,41.24-69.52c38.87-9,34.07-49,34.07-49s29.76,27.5-19.87,84c-22.72,25.88,31.78,79.14,73.43,78,54.71-1.5,69-15.13,61.91-42C1858.45,906,1870,881.23,1870,881.23Z"/><path class="cls-5" d="M1942.5,937.28c-19.2,20-29.09,3-31.36-3-3-8,1.66-26.81,1.66-26.81s-10.94,8-17.34,18.14,1.6,23.33,4.48,29.17,22.24,39.83,22.24,39.83Z"/><path class="cls-3" d="M1832.36,935.81c-16,26.77-68.74-6.37-36.42-23,24-12.38,24.48-38.17,18.08-50.83C1846.66,887,1844.26,915.94,1832.36,935.81Z"/><path class="cls-4" d="M1828.1,881.11c20,37.89-1,59.31-17.4,60.95s-34.56-20.52-6.76-28.12C1833.22,905.94,1828.1,881.11,1828.1,881.11Z"/><path class="cls-7" d="M1819.78,874c12.15,24,14,47.74,3.84,57.49-18.24,17.5-28.2-.52-22.56-5.5s16.11-6.82,22.08-18C1827.89,899.06,1819.78,874,1819.78,874Z"/><path class="cls-6" d="M1690.35,823.11C1659,868.78,1675,897.78,1675,897.78a93.51,93.51,0,0,1,5.44-42C1688.75,833.78,1690.35,823.11,1690.35,823.11Z"/><path class="cls-7" d="M1691.43,911.22c-12.24,59.25,56.15,85.5,62.63,138s-6.48,58.5-6.48,58.5l132.47,2.25s7.2-84-51.11-108.74-90-17.25-113-45.75S1691.43,911.22,1691.43,911.22Z"/><path class="cls-7" d="M1878.5,929.61c62.72,53,45.47,157.1,45.47,157.1l-73.44,8.25s7.92-52.5,30.24-73.49S1878.5,929.61,1878.5,929.61Z"/><path class="cls-6" d="M1651.83,1095c13.68-45.75,49-40.5,54.72-63s-33.12-39-33.12-39,38.36-5.19,57.24,19.81c17.54,23.22,23.35,44.89,14.72,67.66S1651.83,1095,1651.83,1095Z"/><path class="cls-6" d="M1564.87,1079.64c-10.8-48.48,25.91-65.73,28.07-89.73s-1.44-31.49-1.44-31.49,25.2,54.74,5.76,74.24-35.27,42-20.87,52.5l14.39,10.5s-4.31-33.75,16.56-43.5l20.88-9.75s15.84,24.75,7.2,39.75-19.44,17.25-19.44,17.25-63.35-9-61.19-10.5S1564.87,1079.64,1564.87,1079.64Z"/><path class="cls-6" d="M1775.66,1098.71c-10.08-72.75-30.23-100.49-28.08-101.24s60.48,1.5,77.76,37.49-.72-11.25,24.47-29.24,31-39.75,31-39.75,30.24,40.5,28.8,84l-1.44,43.5Z"/><path class="cls-6" d="M1880.77,966c30,30.81,32.45,68.81,39.81,86.3s20.64,20.5,20.64,20.5,4.63,9.67,4.15,9.67l-44.79.5s6.08-29.17,2.24-46.83S1880.77,966,1880.77,966Z"/><path class="cls-6" d="M1785.74,973.47c-43.91-27-45.35-50.25-30.24-68.25s14.4-21.74,14.4-21.74-11.52,30.74-8.64,51S1785.74,973.47,1785.74,973.47Z"/><path class="cls-8" d="M1592.08,1105.46s10.8-37.5,22.32-43.5l11.52-6,5,19.5s2.88-13.5,28.79-17.25,27.36,18,45.36,10.5,16.56-24,16.56-24,12.24,5.25,13,23.25-3.6,18.75-3.6,18.75Z"/><path class="cls-8" d="M1732.47,1107.71c1.44-44.25,38.15-44.25,49.67-57.75s-5.76-29.24-5.76-29.24,35.28,11.24,34.56,28.49l-.72,17.25s.51-12.76,33.84-10.5c41.48,2.81,40.84-54.52,40.84-54.52s23.68,15,31.36,69c3.53,24.88-32.61,19.27-32.61,19.27Z"/><path class="cls-8" d="M1904.42,1028.11c12.8,24.33,6.72,31.66,22.72,42.66s22.39,12.34,22.39,12.34-52.15,0-50.23-1.34S1904.42,1028.11,1904.42,1028.11Z"/><path class="cls-6" d="M1908.42,978.44c-23-35-3.36-53.66-3.36-53.66s-6.4,16.5,1.6,30.16C1914.15,967.74,1908.42,978.44,1908.42,978.44Z"/><path class="cls-7" d="M1884.35,1052c-13.47-15.76,9.22-29.27,9.22-43.61s-5.71-18.74-5.71-18.74,15.48,14.46,10.72,29.68-7.24,32.46,1.88,39.24S1893.22,1062.4,1884.35,1052Z"/><path class="cls-7" d="M1853.22,1012.11c-17.28,22-12.48,39.33-2.24,52l10.24,12.66s8.32-13-4.16-26.66S1853.22,1012.11,1853.22,1012.11Z"/><path class="cls-4" d="M1759.14,1019.78c11.92,23.86,12.8,23.66-1,33.33s1.6,25,1.6,25-12.48-11,2.56-18.67,24-19,10.24-32-10.56-22.33-10.56-22.33S1755,1011.44,1759.14,1019.78Z"/><path class="cls-6" d="M1618.35,921.78c-13.17-14.34-6.08-31-6.08-31s-4.16,13.33,10.56,30.33a17.07,17.07,0,0,1,2.88,18.33S1625.39,929.44,1618.35,921.78Z"/></g><path class="cls-10" d="M356.87,248c-17.3,0-24.7-11.84-25.8-22.07-.34-3.05-.49-9.14-.49-9.95V181.35l3.53-78.45a22.91,22.91,0,0,1,14.41-20.25l2.84-1.14,3.05-.24c.13,0,13.77-1,17.62-1h9.77l2.14.48C398.23,83.94,403.3,95,403.3,103.43v1.14l-4.11,70.55a22,22,0,0,1,18.48,16.42l.45,1.8.11,1.85c.41,6.71.41,11.54.41,17.66v11l-.6,2.39a22.52,22.52,0,0,1-16.22,16.22l-1.89.47L398,243a46.46,46.46,0,0,0-7.24,1.46l-1.31.33L360.19,248Z"/><path class="cls-10" d="M396.24,194.92H378.86V180.14L383.3,104v-.56c0-2.22-2-2.77-3.7-3.14H372c-2.41,0-13.68.74-16.09.92a2.82,2.82,0,0,0-1.84,2.41l-3.52,78.18V216c0,.93.19,6.29.37,7.77.37,3.69,2.59,4.25,5.92,4.25h2.22l26.8-3A58.2,58.2,0,0,1,397,223a2.5,2.5,0,0,0,1.66-1.67v-8.5c0-5.91,0-10.35-.37-16.45A2,2,0,0,0,396.24,194.92Z"/><path class="cls-10" d="M453.16,251.52a55.73,55.73,0,0,1-6.08-.37h-.22l-.95-.09c-17.72-1.68-33.09-11-43.28-26.27-8.32-12.47-12.9-28.53-12.9-45.21,0-18.35,5.63-35.67,15.85-48.78,12.11-15.53,29.86-24.08,50-24.08,27.46,0,42.05,12.15,49.45,22.34,7.68,10.58,11.58,24.22,11.58,40.54C516.6,219.36,491.7,251.52,453.16,251.52Z"/><path class="cls-10" d="M455.57,126.72c-30.13,0-45.84,26.06-45.84,52.86,0,24.58,12.75,49.17,38.07,51.57h.37a46.72,46.72,0,0,0,5,.37c35.12,0,43.44-37.15,43.44-61.92C496.6,150,489.57,126.72,455.57,126.72Zm-3,77.63c-8.5,0-13.31-12.2-13.31-24.4,0-13.12,5-24.77,16.27-24.77,9.05,0,13.49,11.09,13.49,22.92C469.06,190.86,463.7,204.35,452.61,204.35Z"/><path class="cls-10" d="M538.55,252.07c-14.42,0-27.29-3.44-37.22-9.95a45.42,45.42,0,0,1-20.8-35.41l0-.72v-.72a21.6,21.6,0,0,1,9.11-17.63,49.56,49.56,0,0,1-7.45-26.73c0-24.76,17.85-49.75,57.71-49.75,12.41,0,22.21,3,31.72,9.66,16,11,18.35,24.4,19.27,36.13l.14,1.78L589.55,173l-.36,1.41a19.89,19.89,0,0,1-5,9.19,41.44,41.44,0,0,1,4.27,18.86C588.5,231.23,567.49,252.07,538.55,252.07Z"/><path class="cls-10" d="M560.18,137.26c-6.29-4.44-12-6.1-20.33-6.1-24,0-37.71,11.83-37.71,29.75,0,29.76,38.08,36.05,38.08,45.29,0,2.22-.93,4.62-3.7,4.62-9.8,0-12.38-7.21-15.16-14.23-18.85,5.17-20.88,7.2-20.88,8.68,1.29,17.93,17.56,26.8,38.07,26.8,18.12,0,30-12.19,30-29.57,0-26.06-38.63-26.06-38.63-39.37,0-2.4,0-9.42,8.68-9.42,2.78,0,6.47,2.95,6.47,10.72,0,1.66-.18,3.69-.37,6.1,0,1.1,1.67,1.47,3.33,1.47.92,0,1.85-.18,2.77-.18a8.7,8.7,0,0,0,2.77.18c5.18,0,15.9-.92,16.27-2.4l1.11-11.09C570.16,149.09,568.87,143.17,560.18,137.26Z"/><path class="cls-10" d="M655,248.93c-12.18,0-22.11-9.45-22.21-21.11l-.87-75.61c-13.2-.77-20.44-9.06-22.83-16.84l-.89-2.87v-3c0-.8,0-1.77,0-2.86-.24-16.4.25-29.63,8.76-38.26A22.42,22.42,0,0,1,633,81.58c5.11,0,14.57-.17,23.73-.35,10.14-.19,20.64-.39,27.1-.39,9.94,0,21.22.7,29.19,9,7.56,7.88,7.17,17.32,7,22.39,0,.94-.07,1.82-.07,2.65,0,.57,0,1.2,0,1.87a55.45,55.45,0,0,1-.71,12.6c-2.55,12.84-11.44,18.83-19.51,20.32l-.14,73.56c0,3.57-1.22,15.77-16.83,21.11a73,73,0,0,1-10.4,2.57A122.59,122.59,0,0,1,655,248.93Z"/><path class="cls-10" d="M699.91,114.89c0-9.79,3-14-16.08-14-12.2,0-39.93.74-50.83.74-5.92,0-4.81,20.52-4.81,27.91.74,2.41,3.33,2.78,5.73,2.78,5.55,0,11.28-1.85,17-1.85a4.42,4.42,0,0,1,.74.18l1.1,97c0,.92,1.85,1.29,2.22,1.29,3.88,0,24.59-2.59,24.59-5.73l.18-92.6,16.08-.55C701,129.49,699.91,120.07,699.91,114.89Z"/><path class="cls-10" d="M726,251.7c-4.1,0-7.38-.21-10.27-.4s-5.19-.34-8.4-.34c-.95,0-2.2.13-3.65.28-2.09.2-4.69.46-7.63.46a21.94,21.94,0,0,1-16.83-7.61,21.66,21.66,0,0,1-5-15.87c.41-10.39.85-20.86,1.3-31.71.77-18.28,1.56-37.19,2.37-58.7l.06-1.61.31-1.58A22.43,22.43,0,0,1,698,116.82c2.17-.35,4.23-.78,6.4-1.23a89.12,89.12,0,0,1,19.53-2.4,23.06,23.06,0,0,1,12,3.41A52.33,52.33,0,0,1,749.05,115a70.19,70.19,0,0,1,15.55,1.86l16.76,3.82-4.65,63.41H758.13a77.07,77.07,0,0,1-9-.58,50.3,50.3,0,0,0-.63,6.25c-.15,3.39-.11,7.21-.07,11.27,0,4.36.1,9.29-.09,14.55,0,1.15.11,4.21.17,6.31.13,4,.2,6.47.2,7.81v1.42l-.2,1.41A22.44,22.44,0,0,1,726,251.7Z"/><path class="cls-10" d="M725.78,145.94c0-2.77.93-5.91,1.11-8.5,0-3-1.11-4.25-3-4.25-9,0-15,2.22-23.66,3.51a2.44,2.44,0,0,0-2.4,1.85c-1.29,34.75-2.59,63.21-3.69,91.12-.19,1.11.18,2,1.84,2,3.89,0,7.4-.74,11.28-.74,7.58,0,11.64.74,18.67.74,1.66,0,2.58-.74,2.77-2,0-2.22-.37-12.2-.37-14.42.37-9.79-.19-18.48.18-26.43.74-16.26,5.55-26.43,15.16-26.06,4.07.19,8.87,1.3,14.42,1.3l2-27.73C745.56,133,734.28,135.59,725.78,145.94Z"/><path class="cls-10" d="M804.7,251c-13.3,0-30.21-1.34-42.91-11.83-13.91-11.49-16.76-28.8-17.69-40.81l-.06-.78v-.77c0-14.9.59-26.09,1.53-39.31,2.52-35.25,30.82-53.7,57.47-53.7,25.83,0,52,18,52,52.35,0,1.52-.09,3.86-.18,5.94v.41c0,2.24-.26,7.62-.9,13A52.8,52.8,0,0,1,851,188.75a24.52,24.52,0,0,1,1.39,8.21c0,15.59-4.5,29-13,38.65A45.44,45.44,0,0,1,804.7,251Zm-.37-83.35"/><path class="cls-10" d="M803,123.76c-17.37,0-35.86,11.83-37.52,35.12-.92,12.94-1.48,23.66-1.48,37.89C766.07,223,776.43,231,804.7,231c15.53,0,27.73-11.45,27.73-34,0-2-.93-3.33-3.14-3.52l-19.78-.92c-1.85,0-4.25.92-4.25,3.33.18,12.94-3.51,13.3-7.21,13.12-8.87-.55-8.13-8.69-7-19.22,0-.37.18-.93.18-1.3.37-4.06,4.62-5.36,6.1-5.36,8.87,0,15.71,1.11,24.58,1.11a50.13,50.13,0,0,0,9.06-.55c3.14-1.67,3.88-19.22,3.88-21.63,0-.18.19-4.25.19-5.91C835,134.3,819.31,123.76,803,123.76Zm9.43,37.15-20.15-.73c0-10.91,4.62-12.57,11.64-12.57C814.13,147.61,812.47,152.6,812.47,160.91Z"/><path class="cls-10" d="M878.45,252.07c-14.43,0-27.3-3.44-37.22-9.95a45.42,45.42,0,0,1-20.8-35.41l-.06-.72v-.72a21.63,21.63,0,0,1,9.11-17.63A49.65,49.65,0,0,1,822,160.91c0-24.76,17.84-49.75,57.7-49.75,12.42,0,22.21,3,31.73,9.66,16,11,18.34,24.4,19.26,36.13l.14,1.78L929.44,173l-.35,1.42a20,20,0,0,1-5,9.18,41.31,41.31,0,0,1,4.27,18.86C928.39,231.23,907.39,252.07,878.45,252.07Z"/><path class="cls-10" d="M900.07,137.26c-6.28-4.44-12-6.1-20.33-6.1-24,0-37.7,11.83-37.7,29.75,0,29.76,38.07,36.05,38.07,45.29,0,2.22-.92,4.62-3.69,4.62-9.8,0-12.39-7.21-15.16-14.23-18.85,5.17-20.89,7.2-20.89,8.68,1.3,17.93,17.56,26.8,38.08,26.8,18.11,0,29.94-12.19,29.94-29.57,0-26.06-38.63-26.06-38.63-39.37,0-2.4,0-9.42,8.69-9.42,2.77,0,6.47,2.95,6.47,10.72,0,1.66-.19,3.69-.37,6.1,0,1.1,1.66,1.47,3.32,1.47.93,0,1.85-.18,2.78-.18a8.62,8.62,0,0,0,2.77.18c5.18,0,15.89-.92,16.26-2.4l1.11-11.09C910.05,149.09,908.76,143.17,900.07,137.26Z"/><path class="cls-10" d="M1001.72,251.7c-24,0-38.63-10.18-47.56-33a63,63,0,0,1-4.69-17.43l0-.29-1.35-20.53v-.66c0-32.39,1.06-39.81,1.84-44.06v-.13l.1-.44c.09-.56.2-1.11.34-1.67.25-1.2.46-2.39.67-3.57a78.37,78.37,0,0,1,4-15.3l.09-.24.1-.24a60,60,0,0,1,13.87-19.81l.42-.4.44-.37c14.59-12.37,30.82-13.8,41.77-13.8h6.49l1.48.22c15.82,2.39,28,12.64,34.29,28.86,3.55,9.16,5.28,20,5.28,33.24v6.1c0,1.83-.37,8.56-.71,11.35h0a21.79,21.79,0,0,1-5.43,11.92,20.94,20.94,0,0,1,3.55,11.66v7.21c0,15.8-2.06,33.88-17.28,48.29C1030.46,247.17,1017.45,251.7,1001.72,251.7Z"/><path class="cls-10" d="M1016.7,99.74h-5c-10.72,0-20.34,1.84-28.84,9.05a40.33,40.33,0,0,0-9.24,13.13c-2,5.17-2.59,10.35-3.7,15.71,0,.37-.18.55-.18.92-.55,3-1.66,8.32-1.66,41.22l1.29,19.59a43.3,43.3,0,0,0,3.33,11.83c5.73,14.78,12.57,20.51,29,20.51,8.13,0,17.74-1.66,23.84-7.57,9.61-9.06,11.09-21.07,11.09-33.83v-7.21c0-.74-1.11-1.29-1.67-1.29h-27.17c-.92,0-1.47,1.85-1.47,2.59v.37c0,.74-.37,6.84-.37,7.58,0,.55-.56,4.06-.74,5.17-.19,2.59-1.3,9.43-5,9.43-3.15,0-3.88-8.32-4.07-10.17-.18-2-.74-8-.74-8.5V177.73c0-13.49.37-27,3.7-40.1.74-2.78,2.22-6.66,5.36-6.66,3.88,0,5.54,4.81,5.73,7.95v5.73c0,4.44-.56,8.5-.56,12.75,0,1.11,0,1.67.93,2.41,1.29,0,7.39.18,8.68.18,2,0,8.14-.18,8.51-.18.74,0,6.1-.37,7.94-.56,1.3-.18,2.78-.74,3-2.22.19-1.29.56-7.57.56-8.87v-6.1C1039.25,126.17,1036.29,102.69,1016.7,99.74Z"/><path class="cls-10" d="M1091,251c-13.3,0-30.21-1.34-42.91-11.83-13.91-11.49-16.76-28.8-17.69-40.81l-.06-.78v-.77c0-14.9.59-26.09,1.53-39.31,2.52-35.25,30.82-53.7,57.47-53.7,25.83,0,52,18,52,52.35,0,1.52-.09,3.86-.18,5.94v.41c0,2.24-.26,7.62-.9,13a52.8,52.8,0,0,1-2.89,13.29,24.52,24.52,0,0,1,1.39,8.21c0,15.59-4.5,29-13,38.65A45.44,45.44,0,0,1,1091,251Zm-.37-83.35"/><path class="cls-10" d="M1089.33,123.76c-17.37,0-35.86,11.83-37.52,35.12-.92,12.94-1.48,23.66-1.48,37.89,2,26.25,12.39,34.19,40.66,34.19,15.53,0,27.73-11.45,27.73-34,0-2-.92-3.33-3.14-3.52l-19.78-.92c-1.85,0-4.25.92-4.25,3.33.18,12.94-3.51,13.3-7.21,13.12-8.87-.55-8.13-8.69-7-19.22,0-.37.18-.93.18-1.3.37-4.06,4.62-5.36,6.1-5.36,8.87,0,15.71,1.11,24.58,1.11a50.07,50.07,0,0,0,9.06-.55c3.14-1.67,3.88-19.22,3.88-21.63,0-.18.19-4.25.19-5.91C1121.31,134.3,1105.6,123.76,1089.33,123.76Zm9.43,37.15-20.15-.73c0-10.91,4.62-12.57,11.65-12.57C1100.42,147.61,1098.76,152.6,1098.76,160.91Z"/><path class="cls-10" d="M1160.12,251.7c-4.1,0-7.37-.21-10.27-.4s-5.19-.34-8.4-.34c-.94,0-2.2.13-3.65.28-2.09.2-4.69.46-7.63.46a21.94,21.94,0,0,1-16.83-7.61,21.7,21.7,0,0,1-5-15.87c.41-10.4.85-20.87,1.31-31.73.76-18.27,1.56-37.18,2.36-58.68l.06-1.61.31-1.57a22.43,22.43,0,0,1,19.74-17.81c2.17-.35,4.23-.78,6.4-1.23a89.2,89.2,0,0,1,19.53-2.4,23.06,23.06,0,0,1,12,3.41,52.35,52.35,0,0,1,13.15-1.63,70.18,70.18,0,0,1,15.54,1.86l16.76,3.82-4.65,63.41h-18.58a77.22,77.22,0,0,1-9-.58,50.3,50.3,0,0,0-.63,6.25c-.15,3.39-.11,7.21-.07,11.27.05,4.36.1,9.29-.09,14.55,0,1.15.11,4.21.18,6.31.12,4,.19,6.47.19,7.81v1.42l-.2,1.41A22.44,22.44,0,0,1,1160.12,251.7Z"/><path class="cls-10" d="M1159.93,145.94c0-2.77.93-5.91,1.11-8.5,0-3-1.11-4.25-3-4.25-9,0-15,2.22-23.65,3.51a2.44,2.44,0,0,0-2.41,1.85c-1.29,34.75-2.58,63.21-3.69,91.12-.19,1.11.18,2,1.85,2,3.88,0,7.39-.74,11.27-.74,7.58,0,11.64.74,18.67.74,1.66,0,2.59-.74,2.77-2,0-2.22-.37-12.2-.37-14.42.37-9.79-.18-18.48.19-26.43.73-16.26,5.54-26.43,15.15-26.06,4.07.19,8.87,1.3,14.42,1.3l2-27.73C1179.71,133,1168.43,135.59,1159.93,145.94Z"/><path class="cls-10" d="M1255.67,253.18c-8.82,0-16-.9-22.29-5.29a23.41,23.41,0,0,1-2-1.56,51.2,51.2,0,0,1-9.69.94c-29.44,0-47.73-26.5-47.73-69.17,0-14.17,3.9-28,11-38.91,8.38-12.92,20.41-20.63,34.21-22.06-.06-1.95-.1-3.93-.1-5.93,0-5.84,0-14.66,6.3-22.14,7.71-9.14,18.9-9.14,23.68-9.14,2.09,0,4.21.08,6.47.17,2.63.1,5.36.2,8.5.2h2.38l2.31.56a26,26,0,0,1,19.21,18.63,46.78,46.78,0,0,1,1.46,13.38l.19,102.54c0,.49,0,1.18,0,2,.06,1.71.13,4,.13,6.36,0,5.09,0,15.68-8.49,22.76l-4,3.37-5.18.94c-.78.14-11.2,1.94-14.34,2.25l-1,.1Zm-14.78-76.83"/><path class="cls-10" d="M1269.35,112.86c0-5.36,0-11.28-5.36-12.57-6.28,0-11.09-.37-15-.37-9.06,0-10,1.66-10,11.28,0,9.79,1.11,19.59,1.11,29.57a40.45,40.45,0,0,0-16.27-3.88c-19.22,0-29.94,21.44-29.94,41.21,0,20.15,5.18,49.17,27.73,49.17,5.54,0,12-1.67,19.77-5.73l.37.55c1.85,7.95-.92,11.09,13.86,11.09,1.85-.18,10.72-1.66,12.76-2,1.11-.92,1.29-4.07,1.29-7.39s-.18-6.84-.18-8.32ZM1229.06,201c-5.92,0-7.76-14.78-8.13-20a15.45,15.45,0,0,1-.19-3c0-12,6.1-16.63,11.65-16.63,4.62,0,8.5,3.14,8.5,7.76C1240.89,188.45,1238.48,201,1229.06,201Z"/><path class="cls-10" d="M1288.6,249.9c-30.5,0-32-20.09-32-24.11v-.6l4.83-80.58c.7-12.5,7.38-22.19,18.34-26.57,7-2.82,14.39-2.82,20.3-2.82l.58,0c.9,0,2-.06,3.18-.06,28,0,28.81,21.18,28.81,23.59v1l-4,93.35-4.38,5.21c-8.48,10.11-26,11.62-35.61,11.62Z"/><path class="cls-10" d="M1300,135.22c-10,0-18.11.19-18.67,10.54l-4.8,80c0,6.65,28.46,4.25,32.34-.37l3.7-86.13v-.56C1312.6,134.3,1302.62,135.22,1300,135.22Z"/><path class="cls-10" d="M1297.81,150.23a32.6,32.6,0,0,1-32.75-32.38c0-18.67,15.12-33.29,34.42-33.29,18.56,0,32.56,13.28,32.56,30.89C1332,134.63,1316.69,150.23,1297.81,150.23Z"/><path class="cls-10" d="M1297.81,130.23c8.69,0,14.23-7.39,14.23-14.78,0-15.16-27-14.61-27,2.4A12.7,12.7,0,0,0,1297.81,130.23Z"/><path class="cls-10" d="M1339.58,255a49.57,49.57,0,0,1-8.13-.49c-12.54-2-18.61-11.49-19.21-20h0c-.59-8.45-.55-23.84.13-45.73.14-4.41.28-8.43.42-11.88a23.58,23.58,0,0,1-6.28-4.56c-8.68-8.8-8.51-21.56-8.39-30.88,0-.8,0-1.55,0-2.24,0-3.77,1.11-20.17,19.88-25.3l.48-9c.46-9.88,5.42-17.28,14-21l3.73-2.66,6.09-.18a51.94,51.94,0,0,0,6-.64,83.79,83.79,0,0,1,12.27-1,28.26,28.26,0,0,1,14.11,3.15c7.74,4.27,12.18,12.16,12.18,21.66v1l-.71,7,.91.2c10.54,2.5,17.72,10.12,19,19.86.4,2.53.2,5.62-.33,13.66-.21,3.21-.56,8.59-.58,9.88,0,8.76-5.48,19.83-20.69,23.27-.06,7.32-.1,13.62-.14,19.16-.11,16.67-.17,25-.55,30.17-1.12,15.07-9.22,20.8-16,22.93-4.39,1.44-12,3.32-27.25,3.53h-1Z"/><path class="cls-10" d="M1375.81,131.53h-1.3c-4.8,0-6.28.92-10.53.92v-.37c0-.37.37-1.66.37-1.85l2.59-25.87c0-4.62-2.78-4.81-6.29-4.81-6.65,0-11.27,1.48-17.74,1.66-2.59,1.85-4.25.56-4.44,4.81l-1.29,24.58-.37,2c-.74,0-2.59-.19-4.62-.19h-1.48c-4.07,0-12.57,0-12.57,6.84,0,7-.92,20.15,5.18,20.15,3.51,0,6.83-.19,10.35-.19-.19-.37-2.78,55.45-1.48,73.93,0,1.85,4.06,1.85,7.39,1.85h.74c13.68-.18,19.22-1.85,21.44-2.59,3.14-.92,2.22-3.14,3-71.9h2.4c7.21,0,18.11,0,18.11-4.62,0-3.32,1.3-19.77,1.11-20.33C1386.34,131.53,1379.69,131.53,1375.81,131.53Z"/><path class="cls-10" d="M1430.89,251.52a55.73,55.73,0,0,1-6.08-.37h-.23l-.94-.09c-17.72-1.68-33.1-11-43.28-26.27-8.32-12.47-12.91-28.53-12.91-45.21,0-18.35,5.63-35.67,15.85-48.78,12.11-15.53,29.87-24.08,50-24.08,27.46,0,42,12.15,49.45,22.34,7.68,10.58,11.58,24.22,11.58,40.54C1494.32,219.36,1469.42,251.52,1430.89,251.52Z"/><path class="cls-10" d="M1433.29,126.72c-30.13,0-45.84,26.06-45.84,52.86,0,24.58,12.75,49.17,38.08,51.57h.37a46.34,46.34,0,0,0,5,.37c35.11,0,43.43-37.15,43.43-61.92C1474.32,150,1467.3,126.72,1433.29,126.72Zm-3,77.63c-8.5,0-13.31-12.2-13.31-24.4,0-13.12,5-24.77,16.27-24.77,9.06,0,13.49,11.09,13.49,22.92C1446.78,190.86,1441.42,204.35,1430.33,204.35Z"/><path class="cls-10" d="M1516.28,252.07c-14.43,0-27.3-3.44-37.22-9.95a45.46,45.46,0,0,1-20.81-35.41l0-.72v-.72a21.63,21.63,0,0,1,9.11-17.63,49.65,49.65,0,0,1-7.44-26.73c0-24.76,17.84-49.75,57.7-49.75,12.42,0,22.21,3,31.73,9.66,16,11,18.34,24.4,19.26,36.13l.14,1.78L1567.27,173l-.35,1.42a20,20,0,0,1-5,9.18,41.31,41.31,0,0,1,4.27,18.86C1566.22,231.23,1545.22,252.07,1516.28,252.07Z"/><path class="cls-10" d="M1537.9,137.26c-6.28-4.44-12-6.1-20.33-6.1-24,0-37.7,11.83-37.7,29.75,0,29.76,38.07,36.05,38.07,45.29,0,2.22-.92,4.62-3.69,4.62-9.8,0-12.39-7.21-15.16-14.23-18.85,5.17-20.89,7.2-20.89,8.68,1.3,17.93,17.56,26.8,38.08,26.8,18.11,0,29.94-12.19,29.94-29.57,0-26.06-38.63-26.06-38.63-39.37,0-2.4,0-9.42,8.69-9.42,2.77,0,6.47,2.95,6.47,10.72,0,1.66-.19,3.69-.37,6.1,0,1.1,1.66,1.47,3.32,1.47.93,0,1.85-.18,2.78-.18a8.62,8.62,0,0,0,2.77.18c5.18,0,15.89-.92,16.27-2.4l1.1-11.09C1547.88,149.09,1546.59,143.17,1537.9,137.26Z"/><path class="cls-11" d="M396.24,194.92H378.86V180.14L383.3,104v-.56c0-2.22-2-2.77-3.7-3.14H372c-2.41,0-13.68.74-16.09.92a2.82,2.82,0,0,0-1.84,2.41l-3.52,78.18V216c0,.93.19,6.29.37,7.77.37,3.69,2.59,4.25,5.92,4.25h2.22l26.8-3A58.2,58.2,0,0,1,397,223a2.5,2.5,0,0,0,1.66-1.67v-8.5c0-5.91,0-10.35-.37-16.45A2,2,0,0,0,396.24,194.92Z"/><path class="cls-12" d="M455.57,126.72c-30.13,0-45.84,26.06-45.84,52.86,0,24.58,12.75,49.17,38.07,51.57h.37a46.72,46.72,0,0,0,5,.37c35.12,0,43.44-37.15,43.44-61.92C496.6,150,489.57,126.72,455.57,126.72Zm-3,77.63c-8.5,0-13.31-12.2-13.31-24.4,0-13.12,5-24.77,16.27-24.77,9.05,0,13.49,11.09,13.49,22.92C469.06,190.86,463.7,204.35,452.61,204.35Z"/><path class="cls-13" d="M560.18,137.26c-6.29-4.44-12-6.1-20.33-6.1-24,0-37.71,11.83-37.71,29.75,0,29.76,38.08,36.05,38.08,45.29,0,2.22-.93,4.62-3.7,4.62-9.8,0-12.38-7.21-15.16-14.23-18.85,5.17-20.88,7.2-20.88,8.68,1.29,17.93,17.56,26.8,38.07,26.8,18.12,0,30-12.19,30-29.57,0-26.06-38.63-26.06-38.63-39.37,0-2.4,0-9.42,8.68-9.42,2.78,0,6.47,2.95,6.47,10.72,0,1.66-.18,3.69-.37,6.1,0,1.1,1.67,1.47,3.33,1.47.92,0,1.85-.18,2.77-.18a8.7,8.7,0,0,0,2.77.18c5.18,0,15.9-.92,16.27-2.4l1.11-11.09C570.16,149.09,568.87,143.17,560.18,137.26Z"/><path class="cls-14" d="M699.91,114.89c0-9.79,3-14-16.08-14-12.2,0-39.93.74-50.83.74-5.92,0-4.81,20.52-4.81,27.91.74,2.41,3.33,2.78,5.73,2.78,5.55,0,11.28-1.85,17-1.85a4.42,4.42,0,0,1,.74.18l1.1,97c0,.92,1.85,1.29,2.22,1.29,3.88,0,24.59-2.59,24.59-5.73l.18-92.6,16.08-.55C701,129.49,699.91,120.07,699.91,114.89Z"/><path class="cls-15" d="M725.78,145.94c0-2.77.93-5.91,1.11-8.5,0-3-1.11-4.25-3-4.25-9,0-15,2.22-23.66,3.51a2.44,2.44,0,0,0-2.4,1.85c-1.29,34.75-2.59,63.21-3.69,91.12-.19,1.11.18,2,1.84,2,3.89,0,7.4-.74,11.28-.74,7.58,0,11.64.74,18.67.74,1.66,0,2.58-.74,2.77-2,0-2.22-.37-12.2-.37-14.42.37-9.79-.19-18.48.18-26.43.74-16.26,5.55-26.43,15.16-26.06,4.07.19,8.87,1.3,14.42,1.3l2-27.73C745.56,133,734.28,135.59,725.78,145.94Z"/><path class="cls-16" d="M803,123.76c-17.37,0-35.86,11.83-37.52,35.12-.92,12.94-1.48,23.66-1.48,37.89C766.07,223,776.43,231,804.7,231c15.53,0,27.73-11.45,27.73-34,0-2-.93-3.33-3.14-3.52l-19.78-.92c-1.85,0-4.25.92-4.25,3.33.18,12.94-3.51,13.3-7.21,13.12-8.87-.55-8.13-8.69-7-19.22,0-.37.18-.93.18-1.3.37-4.06,4.62-5.36,6.1-5.36,8.87,0,15.71,1.11,24.58,1.11a50.13,50.13,0,0,0,9.06-.55c3.14-1.67,3.88-19.22,3.88-21.63,0-.18.19-4.25.19-5.91C835,134.3,819.31,123.76,803,123.76Zm9.43,37.15-20.15-.73c0-10.91,4.62-12.57,11.64-12.57C814.13,147.61,812.47,152.6,812.47,160.91Z"/><path class="cls-17" d="M900.07,137.26c-6.28-4.44-12-6.1-20.33-6.1-24,0-37.7,11.83-37.7,29.75,0,29.76,38.07,36.05,38.07,45.29,0,2.22-.92,4.62-3.69,4.62-9.8,0-12.39-7.21-15.16-14.23-18.85,5.17-20.89,7.2-20.89,8.68,1.3,17.93,17.56,26.8,38.08,26.8,18.11,0,29.94-12.19,29.94-29.57,0-26.06-38.63-26.06-38.63-39.37,0-2.4,0-9.42,8.69-9.42,2.77,0,6.47,2.95,6.47,10.72,0,1.66-.19,3.69-.37,6.1,0,1.1,1.66,1.47,3.32,1.47.93,0,1.85-.18,2.78-.18a8.62,8.62,0,0,0,2.77.18c5.18,0,15.89-.92,16.26-2.4l1.11-11.09C910.05,149.09,908.76,143.17,900.07,137.26Z"/><path class="cls-18" d="M1016.7,99.74h-5c-10.72,0-20.34,1.84-28.84,9.05a40.33,40.33,0,0,0-9.24,13.13c-2,5.17-2.59,10.35-3.7,15.71,0,.37-.18.55-.18.92-.55,3-1.66,8.32-1.66,41.22l1.29,19.59a43.3,43.3,0,0,0,3.33,11.83c5.73,14.78,12.57,20.51,29,20.51,8.13,0,17.74-1.66,23.84-7.57,9.61-9.06,11.09-21.07,11.09-33.83v-7.21c0-.74-1.11-1.29-1.67-1.29h-27.17c-.92,0-1.47,1.85-1.47,2.59v.37c0,.74-.37,6.84-.37,7.58,0,.55-.56,4.06-.74,5.17-.19,2.59-1.3,9.43-5,9.43-3.15,0-3.88-8.32-4.07-10.17-.18-2-.74-8-.74-8.5V177.73c0-13.49.37-27,3.7-40.1.74-2.78,2.22-6.66,5.36-6.66,3.88,0,5.54,4.81,5.73,7.95v5.73c0,4.44-.56,8.5-.56,12.75,0,1.11,0,1.67.93,2.41,1.29,0,7.39.18,8.68.18,2,0,8.14-.18,8.51-.18.74,0,6.1-.37,7.94-.56,1.3-.18,2.78-.74,3-2.22.19-1.29.56-7.57.56-8.87v-6.1C1039.25,126.17,1036.29,102.69,1016.7,99.74Z"/><path class="cls-19" d="M1089.33,123.76c-17.37,0-35.86,11.83-37.52,35.12-.92,12.94-1.48,23.66-1.48,37.89,2,26.25,12.39,34.19,40.66,34.19,15.53,0,27.73-11.45,27.73-34,0-2-.92-3.33-3.14-3.52l-19.78-.92c-1.85,0-4.25.92-4.25,3.33.18,12.94-3.51,13.3-7.21,13.12-8.87-.55-8.13-8.69-7-19.22,0-.37.18-.93.18-1.3.37-4.06,4.62-5.36,6.1-5.36,8.87,0,15.71,1.11,24.58,1.11a50.07,50.07,0,0,0,9.06-.55c3.14-1.67,3.88-19.22,3.88-21.63,0-.18.19-4.25.19-5.91C1121.31,134.3,1105.6,123.76,1089.33,123.76Zm9.43,37.15-20.15-.73c0-10.91,4.62-12.57,11.65-12.57C1100.42,147.61,1098.76,152.6,1098.76,160.91Z"/><path class="cls-20" d="M1159.93,145.94c0-2.77.93-5.91,1.11-8.5,0-3-1.11-4.25-3-4.25-9,0-15,2.22-23.65,3.51a2.44,2.44,0,0,0-2.41,1.85c-1.29,34.75-2.58,63.21-3.69,91.12-.19,1.11.18,2,1.85,2,3.88,0,7.39-.74,11.27-.74,7.58,0,11.64.74,18.67.74,1.66,0,2.59-.74,2.77-2,0-2.22-.37-12.2-.37-14.42.37-9.79-.18-18.48.19-26.43.73-16.26,5.54-26.43,15.15-26.06,4.07.19,8.87,1.3,14.42,1.3l2-27.73C1179.71,133,1168.43,135.59,1159.93,145.94Z"/><path class="cls-21" d="M1269.35,112.86c0-5.36,0-11.28-5.36-12.57-6.28,0-11.09-.37-15-.37-9.06,0-10,1.66-10,11.28,0,9.79,1.11,19.59,1.11,29.57a40.45,40.45,0,0,0-16.27-3.88c-19.22,0-29.94,21.44-29.94,41.21,0,20.15,5.18,49.17,27.73,49.17,5.54,0,12-1.67,19.77-5.73l.37.55c1.85,7.95-.92,11.09,13.86,11.09,1.85-.18,10.72-1.66,12.76-2,1.11-.92,1.29-4.07,1.29-7.39s-.18-6.84-.18-8.32ZM1229.06,201c-5.92,0-7.76-14.78-8.13-20a15.45,15.45,0,0,1-.19-3c0-12,6.1-16.63,11.65-16.63,4.62,0,8.5,3.14,8.5,7.76C1240.89,188.45,1238.48,201,1229.06,201Z"/><path class="cls-22" d="M1300,135.22c-10,0-18.11.19-18.67,10.54l-4.8,80c0,6.65,28.46,4.25,32.34-.37l3.7-86.13v-.56C1312.6,134.3,1302.62,135.22,1300,135.22Z"/><path class="cls-23" d="M1297.81,130.23c8.69,0,14.23-7.39,14.23-14.78,0-15.16-27-14.61-27,2.4A12.7,12.7,0,0,0,1297.81,130.23Z"/><path class="cls-24" d="M1375.81,131.53h-1.3c-4.8,0-6.28.92-10.53.92v-.37c0-.37.37-1.66.37-1.85l2.59-25.87c0-4.62-2.78-4.81-6.29-4.81-6.65,0-11.27,1.48-17.74,1.66-2.59,1.85-4.25.56-4.44,4.81l-1.29,24.58-.37,2c-.74,0-2.59-.19-4.62-.19h-1.48c-4.07,0-12.57,0-12.57,6.84,0,7-.92,20.15,5.18,20.15,3.51,0,6.83-.19,10.35-.19-.19-.37-2.78,55.45-1.48,73.93,0,1.85,4.06,1.85,7.39,1.85h.74c13.68-.18,19.22-1.85,21.44-2.59,3.14-.92,2.22-3.14,3-71.9h2.4c7.21,0,18.11,0,18.11-4.62,0-3.32,1.3-19.77,1.11-20.33C1386.34,131.53,1379.69,131.53,1375.81,131.53Z"/><path class="cls-25" d="M1433.29,126.72c-30.13,0-45.84,26.06-45.84,52.86,0,24.58,12.75,49.17,38.08,51.57h.37a46.34,46.34,0,0,0,5,.37c35.11,0,43.43-37.15,43.43-61.92C1474.32,150,1467.3,126.72,1433.29,126.72Zm-3,77.63c-8.5,0-13.31-12.2-13.31-24.4,0-13.12,5-24.77,16.27-24.77,9.06,0,13.49,11.09,13.49,22.92C1446.78,190.86,1441.42,204.35,1430.33,204.35Z"/><path class="cls-26" d="M1537.9,137.26c-6.28-4.44-12-6.1-20.33-6.1-24,0-37.7,11.83-37.7,29.75,0,29.76,38.07,36.05,38.07,45.29,0,2.22-.92,4.62-3.69,4.62-9.8,0-12.39-7.21-15.16-14.23-18.85,5.17-20.89,7.2-20.89,8.68,1.3,17.93,17.56,26.8,38.08,26.8,18.11,0,29.94-12.19,29.94-29.57,0-26.06-38.63-26.06-38.63-39.37,0-2.4,0-9.42,8.69-9.42,2.77,0,6.47,2.95,6.47,10.72,0,1.66-.19,3.69-.37,6.1,0,1.1,1.66,1.47,3.32,1.47.93,0,1.85-.18,2.78-.18a8.62,8.62,0,0,0,2.77.18c5.18,0,15.89-.92,16.27-2.4l1.1-11.09C1547.88,149.09,1546.59,143.17,1537.9,137.26Z"/><path class="cls-27" d="M347.76,265.79q238.41.12,476.82.15,237.09,0,474.19,0l267.47-.11c3.86,0,3.87-6,0-6q-238.29.12-476.59.15-237.12,0-474.25,0l-267.64-.11c-3.86,0-3.87,6,0,6Z"/><text class="cls-28" transform="translate(590.65 330.95) scale(1.33 1)">y <tspan class="cls-29" x="49.33" y="0">e</tspan><tspan class="cls-30" x="78.79" y="0">l </tspan><tspan class="cls-31" x="116.09" y="0">m</tspan><tspan class="cls-32" x="165.91" y="0">e</tspan><tspan class="cls-33" x="194.81" y="0">d</tspan><tspan class="cls-34" x="226.08" y="0">i</tspan><tspan x="242.81" y="0">o am</tspan><tspan class="cls-35" x="380.73" y="0">bi</tspan><tspan x="428.52" y="0">e</tspan><tspan class="cls-36" x="459.59" y="0">nt</tspan><tspan class="cls-37" x="518.51" y="0">e</tspan></text></svg>