<svg id="Capa_1" data-name="Capa 1" xmlns="http://www.w3.org/2000/svg" xmlns:xlink="http://www.w3.org/1999/xlink" viewBox="0 0 559.28 121.33"><defs><style>.cls-1{fill:#0c0c0c;}.cls-2{fill:url(#Degradado_sin_nombre_12);}.cls-3{fill:url(#Degradado_sin_nombre_12-2);}.cls-4{fill:url(#Degradado_sin_nombre_12-3);}.cls-5{fill:url(#Degradado_sin_nombre_12-4);}.cls-6{fill:url(#Degradado_sin_nombre_12-5);}.cls-7{fill:url(#Degradado_sin_nombre_12-6);}.cls-8{fill:url(#Degradado_sin_nombre_12-7);}.cls-9{fill:url(#Degradado_sin_nombre_12-8);}.cls-10{fill:url(#Degradado_sin_nombre_12-9);}.cls-11{fill:url(#Degradado_sin_nombre_12-10);}.cls-12{fill:url(#Degradado_sin_nombre_12-11);}.cls-13{fill:url(#Degradado_sin_nombre_12-12);}.cls-14{fill:url(#Degradado_sin_nombre_12-13);}.cls-15{fill:url(#Degradado_sin_nombre_12-14);}.cls-16{fill:url(#Degradado_sin_nombre_12-15);}.cls-17{fill:url(#Degradado_sin_nombre_12-16);}.cls-18{fill:url(#Degradado_sin_nombre_12-17);}.cls-19{font-size:31.51px;font-family:SoundBubbleDEMO-Regular, Sound Bubble DEMO;}.cls-20{letter-spacing:-0.02em;}.cls-21{letter-spacing:-0.02em;}.cls-22{letter-spacing:-0.03em;}.cls-23{letter-spacing:-0.02em;}.cls-24{letter-spacing:-0.02em;}.cls-25{letter-spacing:-0.04em;}</style><linearGradient id="Degradado_sin_nombre_12" x1="21.91" y1="65.95" x2="21.91" y2="46.3" gradientUnits="userSpaceOnUse"><stop offset="0" stop-color="#ec1e79"/><stop offset="1" stop-color="#ff7bab"/></linearGradient><linearGradient id="Degradado_sin_nombre_12-2" x1="57.28" y1="65.95" x2="57.28" y2="46.3" xlink:href="#Degradado_sin_nombre_12"/><linearGradient id="Degradado_sin_nombre_12-3" x1="94.44" y1="65.95" x2="94.44" y2="46.3" xlink:href="#Degradado_sin_nombre_12"/><linearGradient id="Degradado_sin_nombre_12-4" x1="152.26" y1="65.95" x2="152.26" y2="46.3" xlink:href="#Degradado_sin_nombre_12"/><linearGradient id="Degradado_sin_nombre_12-5" x1="180.65" y1="65.95" x2="180.65" y2="46.3" xlink:href="#Degradado_sin_nombre_12"/><linearGradient id="Degradado_sin_nombre_12-6" x1="213.24" y1="65.95" x2="213.24" y2="46.3" xlink:href="#Degradado_sin_nombre_12"/><linearGradient id="Degradado_sin_nombre_12-7" x1="247.49" y1="65.95" x2="247.49" y2="46.3" xlink:href="#Degradado_sin_nombre_12"/><linearGradient id="Degradado_sin_nombre_12-8" x1="305.16" y1="65.95" x2="305.16" y2="46.3" xlink:href="#Degradado_sin_nombre_12"/><linearGradient id="Degradado_sin_nombre_12-9" x1="342.15" y1="65.95" x2="342.15" y2="46.3" xlink:href="#Degradado_sin_nombre_12"/><linearGradient id="Degradado_sin_nombre_12-10" x1="376.14" y1="65.95" x2="376.14" y2="46.3" xlink:href="#Degradado_sin_nombre_12"/><linearGradient id="Degradado_sin_nombre_12-11" x1="407.9" y1="65.95" x2="407.9" y2="46.3" xlink:href="#Degradado_sin_nombre_12"/><linearGradient id="Degradado_sin_nombre_12-12" x1="436.15" y1="65.95" x2="436.15" y2="46.3" xlink:href="#Degradado_sin_nombre_12"/><linearGradient id="Degradado_sin_nombre_12-13" x1="437.94" y1="65.95" x2="437.94" y2="46.3" xlink:href="#Degradado_sin_nombre_12"/><linearGradient id="Degradado_sin_nombre_12-14" x1="462.11" y1="65.95" x2="462.11" y2="46.3" xlink:href="#Degradado_sin_nombre_12"/><linearGradient id="Degradado_sin_nombre_12-15" x1="497.53" y1="65.95" x2="497.53" y2="46.3" xlink:href="#Degradado_sin_nombre_12"/><linearGradient id="Degradado_sin_nombre_12-16" x1="534.68" y1="65.95" x2="534.68" y2="46.3" xlink:href="#Degradado_sin_nombre_12"/><linearGradient id="Degradado_sin_nombre_12-17" x1="9.82" y1="91.79" x2="558.47" y2="91.79" xlink:href="#Degradado_sin_nombre_12"/></defs><title>Logo</title><path class="cls-1" d="M13.92,85.1c-7.79,0-11.12-5.33-11.61-9.94-.16-1.37-.22-4.11-.22-4.48V55.09L3.67,19.76a10.33,10.33,0,0,1,6.49-9.12l1.28-.51L12.82,10s6.19-.44,7.93-.44h4.4l1,.22c6.44,1.42,8.72,6.39,8.72,10.2v.51L33,52.28a9.89,9.89,0,0,1,8.32,7.4l.2.81,0,.83c.19,3,.19,5.19.19,7.95v4.94l-.27,1.07a10.15,10.15,0,0,1-7.31,7.3l-.85.22-.88,0a20.54,20.54,0,0,0-3.26.66l-.59.15L15.42,85.1Z" transform="translate(-2.09 -9.25)"/><path class="cls-1" d="M31.65,61.2H23.83V54.54l2-34.29V20c0-1-.91-1.25-1.66-1.41H20.75c-1.09,0-6.16.33-7.24.41a1.28,1.28,0,0,0-.84,1.08L11.09,55.29V70.68c0,.42.09,2.83.17,3.5.17,1.66,1.16,1.91,2.66,1.91h1L27,74.76a26.48,26.48,0,0,1,5-.91,1.15,1.15,0,0,0,.75-.75V69.27c0-2.66,0-4.66-.17-7.41A.91.91,0,0,0,31.65,61.2Z" transform="translate(-2.09 -9.25)"/><path class="cls-1" d="M57.28,86.68a24.07,24.07,0,0,1-2.74-.17h-.1l-.42,0A26.07,26.07,0,0,1,34.53,74.64a36.92,36.92,0,0,1-5.81-20.35,35.75,35.75,0,0,1,7.13-22A27.93,27.93,0,0,1,58.36,21.48c12.37,0,18.94,5.47,22.27,10.06,3.46,4.77,5.21,10.91,5.21,18.26C85.84,72.2,74.63,86.68,57.28,86.68Z" transform="translate(-2.09 -9.25)"/><path class="cls-1" d="M58.36,30.49c-13.56,0-20.64,11.73-20.64,23.8,0,11.07,5.75,22.14,17.15,23.22H55a21.29,21.29,0,0,0,2.25.17C73.09,77.68,76.84,61,76.84,49.8,76.84,41,73.68,30.49,58.36,30.49ZM57,65.44c-3.83,0-6-5.49-6-11,0-5.91,2.25-11.16,7.32-11.16,4.08,0,6.08,5,6.08,10.32C64.44,59.37,62,65.44,57,65.44Z" transform="translate(-2.09 -9.25)"/><path class="cls-1" d="M95.73,86.93c-6.5,0-12.29-1.55-16.76-4.48A20.47,20.47,0,0,1,69.6,66.51l0-.33v-.32a9.75,9.75,0,0,1,4.1-7.94,22.39,22.39,0,0,1-3.35-12c0-11.15,8-22.4,26-22.4a23.43,23.43,0,0,1,14.29,4.35c7.21,4.94,8.26,11,8.67,16.27l.06.8-.64,6.44-.16.64a9,9,0,0,1-2.23,4.14,18.7,18.7,0,0,1,1.92,8.49C118.22,77.54,108.76,86.93,95.73,86.93Z" transform="translate(-2.09 -9.25)"/><path class="cls-1" d="M105.47,35.23a14.39,14.39,0,0,0-9.16-2.75c-10.82,0-17,5.33-17,13.4,0,13.4,17.15,16.23,17.15,20.39,0,1-.42,2.08-1.67,2.08-4.41,0-5.57-3.24-6.82-6.4-8.49,2.33-9.4,3.24-9.4,3.91.58,8.07,7.9,12.07,17.14,12.07,8.16,0,13.48-5.5,13.48-13.32,0-11.74-17.39-11.74-17.39-17.73,0-1.08,0-4.24,3.91-4.24,1.25,0,2.91,1.33,2.91,4.83,0,.74-.08,1.66-.16,2.74,0,.5.75.67,1.49.67.42,0,.84-.09,1.25-.09a3.58,3.58,0,0,0,1.25.09c2.33,0,7.16-.42,7.32-1.08l.5-5C110,40.56,109.38,37.89,105.47,35.23Z" transform="translate(-2.09 -9.25)"/><path class="cls-1" d="M148.16,85.52a9.81,9.81,0,0,1-10-9.51L137.77,42c-6-.34-9.21-4.07-10.29-7.58l-.39-1.29V31.74c0-.37,0-.8,0-1.3-.11-7.38.11-13.33,4-17.22a10.1,10.1,0,0,1,7.24-3.06c2.3,0,6.56-.08,10.68-.15,4.57-.09,9.29-.18,12.2-.18,4.48,0,9.56.31,13.15,4.06,3.4,3.54,3.23,7.79,3.13,10.08,0,.42,0,.82,0,1.19s0,.54,0,.84a25.75,25.75,0,0,1-.32,5.67c-1.15,5.79-5.16,8.48-8.79,9.15L168.23,74c0,1.61-.54,7.1-7.57,9.5A33.56,33.56,0,0,1,156,84.61,54.88,54.88,0,0,1,148.16,85.52Z" transform="translate(-2.09 -9.25)"/><path class="cls-1" d="M168.38,25.16c0-4.41,1.33-6.32-7.24-6.32-5.49,0-18,.33-22.88.33-2.67,0-2.17,9.24-2.17,12.57.33,1.08,1.5,1.24,2.58,1.24,2.5,0,5.08-.83,7.66-.83a1.8,1.8,0,0,1,.33.09l.5,43.69c0,.41.83.58,1,.58,1.75,0,11.07-1.16,11.07-2.58l.08-41.69,7.24-.25C168.88,31.74,168.38,27.49,168.38,25.16Z" transform="translate(-2.09 -9.25)"/><path class="cls-1" d="M180.12,86.76c-1.85,0-3.32-.09-4.62-.18s-2.34-.15-3.79-.15c-.42,0-1,.06-1.64.12a31.84,31.84,0,0,1-3.44.21,9.85,9.85,0,0,1-7.57-3.43,9.67,9.67,0,0,1-2.24-7.14c.18-4.68.38-9.39.58-14.28.35-8.23.71-16.74,1.07-26.43l0-.73.15-.71a10.1,10.1,0,0,1,8.89-8c1-.16,1.9-.35,2.88-.55a40,40,0,0,1,8.79-1.09,10.46,10.46,0,0,1,5.4,1.54,23.29,23.29,0,0,1,5.91-.74,32.08,32.08,0,0,1,7,.84l7.55,1.72L203,56.3H194.6a33.72,33.72,0,0,1-4-.26,22.53,22.53,0,0,0-.28,2.82c-.07,1.52-.05,3.25,0,5.07,0,2,0,4.19,0,6.55,0,.52,0,1.9.07,2.84.06,1.79.09,2.92.09,3.52v.64l-.09.63A10.1,10.1,0,0,1,180.12,86.76Z" transform="translate(-2.09 -9.25)"/><path class="cls-1" d="M180,39.14c0-1.25.42-2.66.5-3.83,0-1.33-.5-1.91-1.33-1.91-4.08,0-6.74,1-10.65,1.58a1.1,1.1,0,0,0-1.08.83c-.59,15.65-1.17,28.47-1.67,41-.08.5.09.92.83.92,1.75,0,3.33-.33,5.08-.33,3.41,0,5.24.33,8.41.33.75,0,1.16-.33,1.25-.92,0-1-.17-5.49-.17-6.49.17-4.41-.08-8.32.08-11.9.34-7.32,2.5-11.9,6.83-11.73,1.83.08,4,.58,6.49.58l.91-12.48C188.94,33.32,183.86,34.48,180,39.14Z" transform="translate(-2.09 -9.25)"/><path class="cls-1" d="M215.57,86.43c-6,0-13.6-.6-19.32-5.33-6.27-5.17-7.55-13-8-18.37l0-.35V62c0-6.71.26-11.75.68-17.7,1.14-15.87,13.88-24.18,25.88-24.18,11.63,0,23.41,8.1,23.41,23.57,0,.68,0,1.74-.08,2.68v.18c0,1-.12,3.43-.4,5.85a24.28,24.28,0,0,1-1.3,6,11.12,11.12,0,0,1,.62,3.69c0,7-2,13-5.86,17.41A20.43,20.43,0,0,1,215.57,86.43ZM215.4,48.9" transform="translate(-2.09 -9.25)"/><path class="cls-1" d="M214.82,29.16c-7.82,0-16.14,5.32-16.89,15.81-.42,5.82-.67,10.65-.67,17.06.92,11.82,5.58,15.4,18.31,15.4,7,0,12.48-5.16,12.48-15.32a1.39,1.39,0,0,0-1.41-1.58l-8.91-.41c-.83,0-1.91.41-1.91,1.49.08,5.83-1.58,6-3.25,5.91-4-.25-3.66-3.91-3.16-8.65,0-.17.09-.42.09-.59a2.86,2.86,0,0,1,2.74-2.41c4,0,7.08.5,11.07.5a22.37,22.37,0,0,0,4.08-.25c1.41-.75,1.75-8.65,1.75-9.74,0-.08.08-1.91.08-2.66C229.22,33.9,222.15,29.16,214.82,29.16Zm4.25,16.72L210,45.55c0-4.91,2.09-5.66,5.25-5.66C219.82,39.89,219.07,42.14,219.07,45.88Z" transform="translate(-2.09 -9.25)"/><path class="cls-1" d="M248.78,86.93c-6.5,0-12.3-1.55-16.76-4.48a20.44,20.44,0,0,1-9.37-15.94l0-.33v-.32a9.72,9.72,0,0,1,4.1-7.94,22.39,22.39,0,0,1-3.35-12c0-11.15,8-22.4,26-22.4a23.38,23.38,0,0,1,14.28,4.35c7.22,4.94,8.26,11,8.68,16.27l.06.8-.64,6.45-.16.63a9.05,9.05,0,0,1-2.24,4.14,18.57,18.57,0,0,1,1.92,8.49C271.26,77.54,261.81,86.93,248.78,86.93Z" transform="translate(-2.09 -9.25)"/><path class="cls-1" d="M258.51,35.23a14.38,14.38,0,0,0-9.15-2.75c-10.82,0-17,5.33-17,13.4,0,13.4,17.14,16.23,17.14,20.39,0,1-.41,2.08-1.66,2.08-4.41,0-5.58-3.24-6.82-6.4-8.49,2.33-9.41,3.24-9.41,3.91.58,8.07,7.91,12.07,17.15,12.07,8.15,0,13.48-5.5,13.48-13.32,0-11.74-17.4-11.74-17.4-17.73,0-1.08,0-4.24,3.92-4.24,1.24,0,2.91,1.33,2.91,4.83,0,.74-.08,1.66-.17,2.74,0,.5.75.67,1.5.67.42,0,.83-.09,1.25-.09a3.51,3.51,0,0,0,1.25.09c2.33,0,7.15-.42,7.32-1.08l.5-5C263,40.56,262.42,37.89,258.51,35.23Z" transform="translate(-2.09 -9.25)"/><path class="cls-1" d="M304.28,86.76c-10.78,0-17.39-4.58-21.41-14.86a28.28,28.28,0,0,1-2.11-7.85l0-.13-.61-9.25v-.3c0-14.58.48-17.92.83-19.84v-.05l.05-.2q.06-.37.15-.75c.11-.54.21-1.08.3-1.61A34.83,34.83,0,0,1,283.25,25l.05-.11,0-.11a27.22,27.22,0,0,1,6.24-8.92l.19-.18.2-.16c6.57-5.57,13.88-6.22,18.81-6.22h2.92l.67.1c7.12,1.08,12.61,5.69,15.44,13a41.12,41.12,0,0,1,2.37,15v2.75c0,.83-.16,3.86-.32,5.11h0a9.75,9.75,0,0,1-2.44,5.37,9.4,9.4,0,0,1,1.6,5.25v3.25c0,7.11-.93,15.25-7.78,21.74C317.23,84.72,311.36,86.76,304.28,86.76Z" transform="translate(-2.09 -9.25)"/><path class="cls-1" d="M311,18.34h-2.25c-4.83,0-9.16.83-13,4.07a18.33,18.33,0,0,0-4.17,5.91A42.08,42.08,0,0,0,290,35.4c0,.16-.08.25-.08.41-.25,1.34-.75,3.75-.75,18.56l.58,8.82a19.48,19.48,0,0,0,1.5,5.33c2.58,6.66,5.66,9.24,13.06,9.24,3.67,0,8-.75,10.74-3.41,4.33-4.08,5-9.49,5-15.23V55.87c0-.33-.5-.58-.75-.58H307c-.42,0-.66.83-.66,1.16v.17c0,.33-.17,3.08-.17,3.41s-.25,1.83-.33,2.33c-.09,1.17-.59,4.25-2.25,4.25-1.42,0-1.75-3.75-1.83-4.58s-.34-3.58-.34-3.83V53.46c0-6.08.17-12.15,1.67-18.06.33-1.25,1-3,2.41-3,1.75,0,2.5,2.17,2.58,3.58v2.58c0,2-.25,3.83-.25,5.74,0,.5,0,.75.42,1.08.58,0,3.33.09,3.91.09.92,0,3.66-.09,3.83-.09.33,0,2.75-.16,3.58-.25.58-.08,1.25-.33,1.33-1s.25-3.42.25-4V37.39C321.18,30.24,319.85,19.67,311,18.34Z" transform="translate(-2.09 -9.25)"/><path class="cls-1" d="M344.48,86.43c-6,0-13.6-.6-19.32-5.33-6.27-5.17-7.55-13-8-18.37l0-.35V62c0-6.71.26-11.75.68-17.7,1.14-15.87,13.88-24.18,25.88-24.18,11.63,0,23.4,8.1,23.4,23.57,0,.68,0,1.74-.07,2.68v.18c0,1-.12,3.43-.4,5.85a24.28,24.28,0,0,1-1.3,6,11.12,11.12,0,0,1,.62,3.69c0,7-2,13-5.86,17.41A20.43,20.43,0,0,1,344.48,86.43Zm-.17-37.53" transform="translate(-2.09 -9.25)"/><path class="cls-1" d="M343.73,29.16c-7.82,0-16.14,5.32-16.89,15.81-.42,5.82-.67,10.65-.67,17.06.92,11.82,5.58,15.4,18.31,15.4,7,0,12.48-5.16,12.48-15.32a1.39,1.39,0,0,0-1.41-1.58l-8.91-.41c-.83,0-1.91.41-1.91,1.49.08,5.83-1.58,6-3.25,5.91-4-.25-3.66-3.91-3.16-8.65,0-.17.09-.42.09-.59a2.86,2.86,0,0,1,2.74-2.41c4,0,7.08.5,11.07.5a22.37,22.37,0,0,0,4.08-.25c1.41-.75,1.75-8.65,1.75-9.74,0-.08.08-1.91.08-2.66C358.13,33.9,351.05,29.16,343.73,29.16ZM348,45.88l-9.08-.33c0-4.91,2.08-5.66,5.25-5.66C348.72,39.89,348,42.14,348,45.88Z" transform="translate(-2.09 -9.25)"/><path class="cls-1" d="M375.6,86.76c-1.84,0-3.32-.09-4.62-.18s-2.34-.15-3.78-.15c-.43,0-1,.06-1.64.12a32,32,0,0,1-3.44.21,9.88,9.88,0,0,1-7.58-3.43,9.76,9.76,0,0,1-2.24-7.14c.19-4.68.39-9.4.59-14.29.35-8.23.7-16.74,1.07-26.42l0-.72.14-.71A10.11,10.11,0,0,1,363,26c1-.16,1.91-.35,2.88-.55a40.1,40.1,0,0,1,8.8-1.09,10.4,10.4,0,0,1,5.39,1.54,23.42,23.42,0,0,1,5.92-.74,32.08,32.08,0,0,1,7,.84l7.55,1.72-2.1,28.55h-8.36a33.58,33.58,0,0,1-4-.26,22.53,22.53,0,0,0-.28,2.82c-.07,1.52-.06,3.25,0,5.07,0,2,0,4.19,0,6.55,0,.52.05,1.9.08,2.84.05,1.79.09,2.92.09,3.52v.64l-.09.63A10.11,10.11,0,0,1,375.6,86.76Z" transform="translate(-2.09 -9.25)"/><path class="cls-1" d="M375.52,39.14c0-1.25.42-2.66.5-3.83,0-1.33-.5-1.91-1.33-1.91-4.08,0-6.74,1-10.65,1.58a1.11,1.11,0,0,0-1.09.83c-.58,15.65-1.16,28.47-1.66,41-.08.5.08.92.83.92,1.75,0,3.33-.33,5.08-.33,3.41,0,5.24.33,8.4.33.75,0,1.17-.33,1.25-.92,0-1-.16-5.49-.16-6.49.16-4.41-.09-8.32.08-11.9.33-7.32,2.5-11.9,6.82-11.73,1.83.08,4,.58,6.5.58L391,34.82C384.43,33.32,379.35,34.48,375.52,39.14Z" transform="translate(-2.09 -9.25)"/><path class="cls-1" d="M418.63,87.43c-4,0-7.2-.4-10-2.38a11,11,0,0,1-.91-.71,22.45,22.45,0,0,1-4.36.43c-13.26,0-21.49-11.94-21.49-31.15a32.5,32.5,0,0,1,4.95-17.52c3.77-5.82,9.19-9.29,15.4-9.93,0-.88,0-1.77,0-2.67,0-2.63,0-6.6,2.83-10,3.47-4.12,8.51-4.12,10.66-4.12.95,0,1.9,0,2.92.08,1.18,0,2.41.09,3.83.09h1.07l1,.25a11.74,11.74,0,0,1,8.65,8.39,21.31,21.31,0,0,1,.65,6l.09,46.17c0,.22,0,.53,0,.9,0,.77.06,1.82.06,2.86,0,2.29,0,7.06-3.82,10.25L428.32,86l-2.34.42c-.35.06-5,.87-6.45,1l-.45,0ZM412,52.83" transform="translate(-2.09 -9.25)"/><path class="cls-1" d="M424.79,24.25c0-2.42,0-5.08-2.41-5.66-2.83,0-5-.17-6.74-.17-4.08,0-4.5.75-4.5,5.08s.5,8.82.5,13.31a18.14,18.14,0,0,0-7.32-1.75c-8.66,0-13.49,9.66-13.49,18.56,0,9.08,2.33,22.14,12.49,22.14a19.36,19.36,0,0,0,8.9-2.58l.17.25c.83,3.58-.42,5,6.24,5,.83-.08,4.83-.74,5.74-.91.5-.42.59-1.83.59-3.33s-.09-3.08-.09-3.74ZM406.65,63.94c-2.67,0-3.5-6.65-3.66-9a6.71,6.71,0,0,1-.09-1.34c0-5.41,2.75-7.49,5.24-7.49a3.6,3.6,0,0,1,3.83,3.5C412,58.28,410.89,63.94,406.65,63.94Z" transform="translate(-2.09 -9.25)"/><path class="cls-1" d="M433.46,86C419.72,86,419,76.91,419,75.1v-.27l2.18-36.29c.31-5.63,3.32-10,8.25-12a24,24,0,0,1,9.14-1.27h.27c.4,0,.89,0,1.43,0,12.6,0,13,9.54,13,10.63v.44l-1.81,42-2,2.34c-3.82,4.55-11.68,5.23-16,5.23Z" transform="translate(-2.09 -9.25)"/><path class="cls-1" d="M438.6,34.32c-4.49,0-8.15.08-8.4,4.74L428,75.1c0,3,12.82,1.91,14.57-.17l1.66-38.78V35.9C444.26,33.9,439.77,34.32,438.6,34.32Z" transform="translate(-2.09 -9.25)"/><path class="cls-1" d="M437.6,41.07a14.68,14.68,0,0,1-14.74-14.58c0-8.4,6.8-15,15.5-15,8.35,0,14.66,6,14.66,13.91A15.56,15.56,0,0,1,437.6,41.07Z" transform="translate(-2.09 -9.25)"/><path class="cls-1" d="M437.6,32.07A6.51,6.51,0,0,0,444,25.41c0-6.82-12.15-6.57-12.15,1.08A5.73,5.73,0,0,0,437.6,32.07Z" transform="translate(-2.09 -9.25)"/><path class="cls-1" d="M456.41,88.26a22.42,22.42,0,0,1-3.66-.22,9.84,9.84,0,0,1-8.65-9h0c-.27-3.8-.25-10.73.06-20.59.06-2,.13-3.79.19-5.35a10.44,10.44,0,0,1-2.83-2c-3.91-4-3.83-9.71-3.78-13.9,0-.36,0-.7,0-1a11.57,11.57,0,0,1,9-11.4l.21-4a10.21,10.21,0,0,1,6.31-9.44l1.68-1.2,2.74-.08a22.74,22.74,0,0,0,2.73-.29,38.63,38.63,0,0,1,5.52-.46,12.68,12.68,0,0,1,6.35,1.42,10.72,10.72,0,0,1,5.49,9.75v.45L477.42,24l.41.09c4.74,1.12,8,4.55,8.55,8.94a32,32,0,0,1-.15,6.15c-.09,1.45-.25,3.87-.26,4.45,0,3.94-2.46,8.93-9.31,10.47,0,3.3-.05,6.14-.07,8.63,0,7.51-.07,11.28-.24,13.59-.51,6.78-4.16,9.36-7.21,10.32-2,.65-5.39,1.5-12.27,1.59h-.46Z" transform="translate(-2.09 -9.25)"/><path class="cls-1" d="M472.72,32.65h-.58c-2.16,0-2.83.42-4.74.42V32.9c0-.17.16-.75.16-.83l1.17-11.65c0-2.08-1.25-2.17-2.83-2.17-3,0-5.08.67-8,.75-1.16.83-1.91.25-2,2.17l-.58,11.07-.17.91c-.33,0-1.16-.08-2.08-.08h-.66c-1.83,0-5.66,0-5.66,3.08s-.42,9.07,2.33,9.07c1.58,0,3.08-.09,4.66-.09-.08-.16-1.25,25-.67,33.29,0,.84,1.83.84,3.33.84h.34c6.15-.09,8.65-.84,9.65-1.17,1.41-.41,1-1.41,1.33-32.37h1.08c3.25,0,8.16,0,8.16-2.08,0-1.5.58-8.91.5-9.16C477.47,32.65,474.47,32.65,472.72,32.65Z" transform="translate(-2.09 -9.25)"/><path class="cls-1" d="M497.52,86.68a23.88,23.88,0,0,1-2.73-.17h-.11l-.42,0a26.07,26.07,0,0,1-19.49-11.83A37,37,0,0,1,469,54.29a35.76,35.76,0,0,1,7.14-22,27.91,27.91,0,0,1,22.51-10.85c12.36,0,18.93,5.47,22.26,10.06,3.46,4.77,5.22,10.91,5.22,18.26C526.09,72.2,514.88,86.68,497.52,86.68Z" transform="translate(-2.09 -9.25)"/><path class="cls-1" d="M498.61,30.49C485,30.49,478,42.22,478,54.29c0,11.07,5.74,22.14,17.14,23.22h.17a21.3,21.3,0,0,0,2.24.17c15.82,0,19.56-16.73,19.56-27.88C517.08,41,513.92,30.49,498.61,30.49Zm-1.33,35c-3.83,0-6-5.49-6-11,0-5.91,2.25-11.16,7.33-11.16,4.07,0,6.07,5,6.07,10.32C504.68,59.37,502.27,65.44,497.28,65.44Z" transform="translate(-2.09 -9.25)"/><path class="cls-1" d="M536,86.93c-6.49,0-12.29-1.55-16.76-4.48a20.46,20.46,0,0,1-9.36-15.94l0-.33v-.32a9.72,9.72,0,0,1,4.1-7.94,22.39,22.39,0,0,1-3.36-12c0-11.15,8-22.4,26-22.4a23.38,23.38,0,0,1,14.28,4.35c7.22,4.94,8.26,11,8.68,16.27l.06.8-.64,6.45-.16.63a9.05,9.05,0,0,1-2.24,4.14,18.57,18.57,0,0,1,1.92,8.49C558.46,77.54,549,86.93,536,86.93Z" transform="translate(-2.09 -9.25)"/><path class="cls-1" d="M545.71,35.23a14.38,14.38,0,0,0-9.15-2.75c-10.82,0-17,5.33-17,13.4,0,13.4,17.14,16.23,17.14,20.39,0,1-.41,2.08-1.66,2.08-4.41,0-5.58-3.24-6.82-6.4-8.49,2.33-9.41,3.24-9.41,3.91.58,8.07,7.91,12.07,17.14,12.07,8.16,0,13.49-5.5,13.49-13.32,0-11.74-17.4-11.74-17.4-17.73,0-1.08,0-4.24,3.91-4.24,1.25,0,2.92,1.33,2.92,4.83,0,.74-.09,1.66-.17,2.74,0,.5.75.67,1.5.67.42,0,.83-.09,1.25-.09a3.51,3.51,0,0,0,1.25.09c2.33,0,7.15-.42,7.32-1.08l.5-5C550.21,40.56,549.62,37.89,545.71,35.23Z" transform="translate(-2.09 -9.25)"/><path class="cls-2" d="M31.65,61.2H23.83V54.54l2-34.29V20c0-1-.91-1.25-1.66-1.41H20.75c-1.09,0-6.16.33-7.24.41a1.28,1.28,0,0,0-.84,1.08L11.09,55.29V70.68c0,.42.09,2.83.17,3.5.17,1.66,1.16,1.91,2.66,1.91h1L27,74.76a26.48,26.48,0,0,1,5-.91,1.15,1.15,0,0,0,.75-.75V69.27c0-2.66,0-4.66-.17-7.41A.91.91,0,0,0,31.65,61.2Z" transform="translate(-2.09 -9.25)"/><path class="cls-3" d="M58.36,30.49c-13.56,0-20.64,11.73-20.64,23.8,0,11.07,5.75,22.14,17.15,23.22H55a21.29,21.29,0,0,0,2.25.17C73.09,77.68,76.84,61,76.84,49.8,76.84,41,73.68,30.49,58.36,30.49ZM57,65.44c-3.83,0-6-5.49-6-11,0-5.91,2.25-11.16,7.32-11.16,4.08,0,6.08,5,6.08,10.32C64.44,59.37,62,65.44,57,65.44Z" transform="translate(-2.09 -9.25)"/><path class="cls-4" d="M105.47,35.23a14.39,14.39,0,0,0-9.16-2.75c-10.82,0-17,5.33-17,13.4,0,13.4,17.15,16.23,17.15,20.39,0,1-.42,2.08-1.67,2.08-4.41,0-5.57-3.24-6.82-6.4-8.49,2.33-9.4,3.24-9.4,3.91.58,8.07,7.9,12.07,17.14,12.07,8.16,0,13.48-5.5,13.48-13.32,0-11.74-17.39-11.74-17.39-17.73,0-1.08,0-4.24,3.91-4.24,1.25,0,2.91,1.33,2.91,4.83,0,.74-.08,1.66-.16,2.74,0,.5.75.67,1.49.67.42,0,.84-.09,1.25-.09a3.58,3.58,0,0,0,1.25.09c2.33,0,7.16-.42,7.32-1.08l.5-5C110,40.56,109.38,37.89,105.47,35.23Z" transform="translate(-2.09 -9.25)"/><path class="cls-5" d="M168.38,25.16c0-4.41,1.33-6.32-7.24-6.32-5.49,0-18,.33-22.88.33-2.67,0-2.17,9.24-2.17,12.57.33,1.08,1.5,1.24,2.58,1.24,2.5,0,5.08-.83,7.66-.83a1.8,1.8,0,0,1,.33.09l.5,43.69c0,.41.83.58,1,.58,1.75,0,11.07-1.16,11.07-2.58l.08-41.69,7.24-.25C168.88,31.74,168.38,27.49,168.38,25.16Z" transform="translate(-2.09 -9.25)"/><path class="cls-6" d="M180,39.14c0-1.25.42-2.66.5-3.83,0-1.33-.5-1.91-1.33-1.91-4.08,0-6.74,1-10.65,1.58a1.1,1.1,0,0,0-1.08.83c-.59,15.65-1.17,28.47-1.67,41-.08.5.09.92.83.92,1.75,0,3.33-.33,5.08-.33,3.41,0,5.24.33,8.41.33.75,0,1.16-.33,1.25-.92,0-1-.17-5.49-.17-6.49.17-4.41-.08-8.32.08-11.9.34-7.32,2.5-11.9,6.83-11.73,1.83.08,4,.58,6.49.58l.91-12.48C188.94,33.32,183.86,34.48,180,39.14Z" transform="translate(-2.09 -9.25)"/><path class="cls-7" d="M214.82,29.16c-7.82,0-16.14,5.32-16.89,15.81-.42,5.82-.67,10.65-.67,17.06.92,11.82,5.58,15.4,18.31,15.4,7,0,12.48-5.16,12.48-15.32a1.39,1.39,0,0,0-1.41-1.58l-8.91-.41c-.83,0-1.91.41-1.91,1.49.08,5.83-1.58,6-3.25,5.91-4-.25-3.66-3.91-3.16-8.65,0-.17.09-.42.09-.59a2.86,2.86,0,0,1,2.74-2.41c4,0,7.08.5,11.07.5a22.37,22.37,0,0,0,4.08-.25c1.41-.75,1.75-8.65,1.75-9.74,0-.08.08-1.91.08-2.66C229.22,33.9,222.15,29.16,214.82,29.16Zm4.25,16.72L210,45.55c0-4.91,2.09-5.66,5.25-5.66C219.82,39.89,219.07,42.14,219.07,45.88Z" transform="translate(-2.09 -9.25)"/><path class="cls-8" d="M258.51,35.23a14.38,14.38,0,0,0-9.15-2.75c-10.82,0-17,5.33-17,13.4,0,13.4,17.14,16.23,17.14,20.39,0,1-.41,2.08-1.66,2.08-4.41,0-5.58-3.24-6.82-6.4-8.49,2.33-9.41,3.24-9.41,3.91.58,8.07,7.91,12.07,17.15,12.07,8.15,0,13.48-5.5,13.48-13.32,0-11.74-17.4-11.74-17.4-17.73,0-1.08,0-4.24,3.92-4.24,1.24,0,2.91,1.33,2.91,4.83,0,.74-.08,1.66-.17,2.74,0,.5.75.67,1.5.67.42,0,.83-.09,1.25-.09a3.51,3.51,0,0,0,1.25.09c2.33,0,7.15-.42,7.32-1.08l.5-5C263,40.56,262.42,37.89,258.51,35.23Z" transform="translate(-2.09 -9.25)"/><path class="cls-9" d="M311,18.34h-2.25c-4.83,0-9.16.83-13,4.07a18.33,18.33,0,0,0-4.17,5.91A42.08,42.08,0,0,0,290,35.4c0,.16-.08.25-.08.41-.25,1.34-.75,3.75-.75,18.56l.58,8.82a19.48,19.48,0,0,0,1.5,5.33c2.58,6.66,5.66,9.24,13.06,9.24,3.67,0,8-.75,10.74-3.41,4.33-4.08,5-9.49,5-15.23V55.87c0-.33-.5-.58-.75-.58H307c-.42,0-.66.83-.66,1.16v.17c0,.33-.17,3.08-.17,3.41s-.25,1.83-.33,2.33c-.09,1.17-.59,4.25-2.25,4.25-1.42,0-1.75-3.75-1.83-4.58s-.34-3.58-.34-3.83V53.46c0-6.08.17-12.15,1.67-18.06.33-1.25,1-3,2.41-3,1.75,0,2.5,2.17,2.58,3.58v2.58c0,2-.25,3.83-.25,5.74,0,.5,0,.75.42,1.08.58,0,3.33.09,3.91.09.92,0,3.66-.09,3.83-.09.33,0,2.75-.16,3.58-.25.58-.08,1.25-.33,1.33-1s.25-3.42.25-4V37.39C321.18,30.24,319.85,19.67,311,18.34Z" transform="translate(-2.09 -9.25)"/><path class="cls-10" d="M343.73,29.16c-7.82,0-16.14,5.32-16.89,15.81-.42,5.82-.67,10.65-.67,17.06.92,11.82,5.58,15.4,18.31,15.4,7,0,12.48-5.16,12.48-15.32a1.39,1.39,0,0,0-1.41-1.58l-8.91-.41c-.83,0-1.91.41-1.91,1.49.08,5.83-1.58,6-3.25,5.91-4-.25-3.66-3.91-3.16-8.65,0-.17.09-.42.09-.59a2.86,2.86,0,0,1,2.74-2.41c4,0,7.08.5,11.07.5a22.37,22.37,0,0,0,4.08-.25c1.41-.75,1.75-8.65,1.75-9.74,0-.08.08-1.91.08-2.66C358.13,33.9,351.05,29.16,343.73,29.16ZM348,45.88l-9.08-.33c0-4.91,2.08-5.66,5.25-5.66C348.72,39.89,348,42.14,348,45.88Z" transform="translate(-2.09 -9.25)"/><path class="cls-11" d="M375.52,39.14c0-1.25.42-2.66.5-3.83,0-1.33-.5-1.91-1.33-1.91-4.08,0-6.74,1-10.65,1.58a1.11,1.11,0,0,0-1.09.83c-.58,15.65-1.16,28.47-1.66,41-.08.5.08.92.83.92,1.75,0,3.33-.33,5.08-.33,3.41,0,5.24.33,8.4.33.75,0,1.17-.33,1.25-.92,0-1-.16-5.49-.16-6.49.16-4.41-.09-8.32.08-11.9.33-7.32,2.5-11.9,6.82-11.73,1.83.08,4,.58,6.5.58L391,34.82C384.43,33.32,379.35,34.48,375.52,39.14Z" transform="translate(-2.09 -9.25)"/><path class="cls-12" d="M424.79,24.25c0-2.42,0-5.08-2.41-5.66-2.83,0-5-.17-6.74-.17-4.08,0-4.5.75-4.5,5.08s.5,8.82.5,13.31a18.14,18.14,0,0,0-7.32-1.75c-8.66,0-13.49,9.66-13.49,18.56,0,9.08,2.33,22.14,12.49,22.14a19.36,19.36,0,0,0,8.9-2.58l.17.25c.83,3.58-.42,5,6.24,5,.83-.08,4.83-.74,5.74-.91.5-.42.59-1.83.59-3.33s-.09-3.08-.09-3.74ZM406.65,63.94c-2.67,0-3.5-6.65-3.66-9a6.71,6.71,0,0,1-.09-1.34c0-5.41,2.75-7.49,5.24-7.49a3.6,3.6,0,0,1,3.83,3.5C412,58.28,410.89,63.94,406.65,63.94Z" transform="translate(-2.09 -9.25)"/><path class="cls-13" d="M438.6,34.32c-4.49,0-8.15.08-8.4,4.74L428,75.1c0,3,12.82,1.91,14.57-.17l1.66-38.78V35.9C444.26,33.9,439.77,34.32,438.6,34.32Z" transform="translate(-2.09 -9.25)"/><path class="cls-14" d="M437.6,32.07A6.51,6.51,0,0,0,444,25.41c0-6.82-12.15-6.57-12.15,1.08A5.73,5.73,0,0,0,437.6,32.07Z" transform="translate(-2.09 -9.25)"/><path class="cls-15" d="M472.72,32.65h-.58c-2.16,0-2.83.42-4.74.42V32.9c0-.17.16-.75.16-.83l1.17-11.65c0-2.08-1.25-2.17-2.83-2.17-3,0-5.08.67-8,.75-1.16.83-1.91.25-2,2.17l-.58,11.07-.17.91c-.33,0-1.16-.08-2.08-.08h-.66c-1.83,0-5.66,0-5.66,3.08s-.42,9.07,2.33,9.07c1.58,0,3.08-.09,4.66-.09-.08-.16-1.25,25-.67,33.29,0,.84,1.83.84,3.33.84h.34c6.15-.09,8.65-.84,9.65-1.17,1.41-.41,1-1.41,1.33-32.37h1.08c3.25,0,8.16,0,8.16-2.08,0-1.5.58-8.91.5-9.16C477.47,32.65,474.47,32.65,472.72,32.65Z" transform="translate(-2.09 -9.25)"/><path class="cls-16" d="M498.61,30.49C485,30.49,478,42.22,478,54.29c0,11.07,5.74,22.14,17.14,23.22h.17a21.3,21.3,0,0,0,2.24.17c15.82,0,19.56-16.73,19.56-27.88C517.08,41,513.92,30.49,498.61,30.49Zm-1.33,35c-3.83,0-6-5.49-6-11,0-5.91,2.25-11.16,7.33-11.16,4.07,0,6.07,5,6.07,10.32C504.68,59.37,502.27,65.44,497.28,65.44Z" transform="translate(-2.09 -9.25)"/><path class="cls-17" d="M545.71,35.23a14.38,14.38,0,0,0-9.15-2.75c-10.82,0-17,5.33-17,13.4,0,13.4,17.14,16.23,17.14,20.39,0,1-.41,2.08-1.66,2.08-4.41,0-5.58-3.24-6.82-6.4-8.49,2.33-9.41,3.24-9.41,3.91.58,8.07,7.91,12.07,17.14,12.07,8.16,0,13.49-5.5,13.49-13.32,0-11.74-17.4-11.74-17.4-17.73,0-1.08,0-4.24,3.91-4.24,1.25,0,2.92,1.33,2.92,4.83,0,.74-.09,1.66-.17,2.74,0,.5.75.67,1.5.67.42,0,.83-.09,1.25-.09a3.51,3.51,0,0,0,1.25.09c2.33,0,7.15-.42,7.32-1.08l.5-5C550.21,40.56,549.62,37.89,545.71,35.23Z" transform="translate(-2.09 -9.25)"/><path class="cls-18" d="M9.82,94.75q107.35.06,214.7.07,106.75,0,213.52,0,60.21,0,120.43,0c3.86,0,3.87-6,0-6q-107.3.06-214.59.07-106.78,0-213.55,0-60.26,0-120.51,0c-3.86,0-3.87,6,0,6Z" transform="translate(-2.09 -9.25)"/><text class="cls-19" transform="translate(117.1 113.2) scale(1.33 1)">y <tspan class="cls-20" x="22.21" y="0">e</tspan><tspan x="35.48" y="0">l </tspan><tspan class="cls-21" x="52.27" y="0">m</tspan><tspan class="cls-22" x="74.7" y="0">e</tspan><tspan class="cls-20" x="87.72" y="0">d</tspan><tspan class="cls-23" x="101.8" y="0">i</tspan><tspan x="109.33" y="0">o am</tspan><tspan class="cls-24" x="171.43" y="0">bi</tspan><tspan x="192.95" y="0">e</tspan><tspan class="cls-25" x="206.94" y="0">nt</tspan><tspan x="233.47" y="0">e</tspan></text></svg>